<?xml version="1.0" encoding="UTF-8"?>
<svg id="Layer_1" xmlns="http://www.w3.org/2000/svg" xmlns:xlink="http://www.w3.org/1999/xlink" version="1.1" viewBox="0 0 700 1089">
  <!-- Generator: Adobe Illustrator 29.0.0, SVG Export Plug-In . SVG Version: 2.1.0 Build 186)  -->
  <defs>
    <style>
      .st0, .st1, .st2, .st3 {
        fill: none;
      }

      .st4 {
        mask: url(#mask);
      }

      .st5, .st6 {
        fill: #070707;
      }

      .st6, .st1, .st2, .st3, .st7 {
        stroke: #070707;
      }

      .st8 {
        mask: url(#mask-2);
      }

      .st9 {
        mask: url(#mask-3);
      }

      .st10 {
        mask: url(#mask-4);
      }

      .st11 {
        mask: url(#mask-5);
      }

      .st12 {
        mask: url(#mask-7);
      }

      .st13 {
        mask: url(#mask-6);
      }

      .st14 {
        mask: url(#mask-1);
      }

      .st15 {
        mask: url(#mask-9);
      }

      .st16 {
        mask: url(#mask-8);
      }

      .st1 {
        stroke-width: 2px;
      }

      .st2 {
        stroke-width: 3px;
      }

      .st2, .st3 {
        stroke-miterlimit: 10;
      }

      .st3 {
        stroke-width: 3px;
      }

      .st17 {
        fill: #fff;
      }

      .st18, .st7 {
        fill: #fff7f3;
      }

      .st19 {
        mask: url(#mask-10);
      }

      .st20 {
        mask: url(#mask-14);
      }

      .st21 {
        mask: url(#mask-18);
      }

      .st22 {
        mask: url(#mask-11);
      }

      .st23 {
        mask: url(#mask-16);
      }

      .st24 {
        mask: url(#mask-13);
      }

      .st25 {
        mask: url(#mask-19);
      }

      .st26 {
        mask: url(#mask-12);
      }

      .st27 {
        mask: url(#mask-17);
      }

      .st28 {
        mask: url(#mask-15);
      }

      .st29 {
        mask: url(#mask-22);
      }

      .st30 {
        mask: url(#mask-21);
      }

      .st31 {
        mask: url(#mask-20);
      }

      .st32 {
        mask: url(#mask-25);
      }

      .st33 {
        mask: url(#mask-24);
      }

      .st34 {
        mask: url(#mask-23);
      }

      .st35 {
        mask: url(#mask-26);
      }

      .st36 {
        mask: url(#mask-27);
      }

      .st37 {
        clip-path: url(#clippath);
      }
    </style>
    <clipPath id="clippath">
      <rect class="st0" width="699.1" height="1088.1"/>
    </clipPath>
    <mask id="mask" x="89.1" y="24.7" width="12.9" height="12.9" maskUnits="userSpaceOnUse">
      <g id="path-4-inside-1_1354_32">
        <path class="st17" d="M90.5,33.2c-.4-1-.5-2.1-.2-3.2.2-1.1.8-2,1.6-2.8.8-.7,1.8-1.2,2.8-1.4,1.1-.2,2.2,0,3.1.4,1,.4,1.8,1.2,2.4,2.1.6.9.9,2,.8,3.1,0,1.1-.4,2.1-1,3-.6.9-1.5,1.6-2.5,1.9-1.4.5-2.9.5-4.2-.1-1.3-.6-2.4-1.7-2.9-3"/>
      </g>
    </mask>
    <mask id="mask-1" x="26.2" y="119.2" width="12.9" height="12.9" maskUnits="userSpaceOnUse">
      <g id="path-6-inside-2_1354_32">
        <path class="st17" d="M27.6,127.7c-.4-1-.5-2.1-.2-3.2.2-1.1.8-2,1.6-2.8.8-.7,1.8-1.2,2.8-1.4,1.1-.2,2.2,0,3.1.4,1,.4,1.8,1.2,2.4,2.1.6.9.9,2,.8,3.1,0,1.1-.4,2.1-1,3-.6.9-1.5,1.6-2.5,1.9-1.4.5-2.9.5-4.2-.1-1.3-.6-2.4-1.7-2.9-3"/>
      </g>
    </mask>
    <mask id="mask-2" x="151.6" y="56.7" width="12.9" height="12.9" maskUnits="userSpaceOnUse">
      <g id="path-8-inside-3_1354_32">
        <path class="st17" d="M153,65.1c-.4-1-.5-2.1-.2-3.2.2-1.1.8-2,1.6-2.8.8-.7,1.8-1.2,2.8-1.4,1.1-.2,2.2,0,3.1.4,1,.4,1.8,1.2,2.4,2.1.6.9.9,2,.8,3.1,0,1.1-.4,2.1-1,3-.6.9-1.5,1.6-2.5,1.9-1.4.5-2.9.5-4.2-.1-1.3-.6-2.4-1.7-2.9-3"/>
      </g>
    </mask>
    <mask id="mask-3" x="35" y="193.5" width="12.9" height="12.9" maskUnits="userSpaceOnUse">
      <g id="path-10-inside-4_1354_32">
        <path class="st17" d="M36.3,201.9c-.4-1-.5-2.1-.2-3.2.2-1.1.8-2,1.6-2.8.8-.7,1.8-1.2,2.8-1.4,1.1-.2,2.2,0,3.1.4s1.8,1.2,2.4,2.1c.6.9.9,2,.8,3.1s-.4,2.1-1,3c-.6.9-1.5,1.6-2.5,1.9-1.4.5-2.9.5-4.2-.1-1.3-.6-2.4-1.7-2.9-3"/>
      </g>
    </mask>
    <mask id="mask-4" x="117" y="50.7" width="8.1" height="8.1" maskUnits="userSpaceOnUse">
      <g id="path-12-inside-5_1354_32">
        <path class="st17" d="M118.2,55.8c-.2-.6-.3-1.2-.1-1.8.1-.6.4-1.1.9-1.5.4-.4,1-.7,1.6-.8.6-.1,1.2,0,1.8.2.5.2,1,.6,1.3,1.2.3.5.5,1.1.5,1.7,0,.6-.2,1.2-.6,1.7-.3.5-.8.9-1.4,1.1-.4.1-.8.2-1.2.2-.4,0-.8,0-1.2-.3-.4-.2-.7-.4-1-.7-.3-.3-.5-.6-.6-1"/>
      </g>
    </mask>
    <mask id="mask-5" x="83" y="116.2" width="8.1" height="8.1" maskUnits="userSpaceOnUse">
      <g id="path-15-inside-6_1354_32">
        <path class="st17" d="M84.2,121.3c-.2-.6-.3-1.2-.1-1.8.1-.6.4-1.1.9-1.5.4-.4,1-.7,1.6-.8.6-.1,1.2,0,1.7.2.5.2,1,.6,1.3,1.2.3.5.5,1.1.5,1.7,0,.6-.2,1.2-.6,1.7-.3.5-.8.9-1.4,1.1-.4.1-.8.2-1.2.2-.4,0-.8,0-1.2-.3-.4-.2-.7-.4-1-.7-.3-.3-.5-.6-.6-1"/>
      </g>
    </mask>
    <mask id="mask-6" x="20" y="167.3" width="8.1" height="8.1" maskUnits="userSpaceOnUse">
      <g id="path-17-inside-7_1354_32">
        <path class="st17" d="M21.2,172.4c-.2-.6-.3-1.2-.1-1.8.1-.6.4-1.1.9-1.5.4-.4,1-.7,1.6-.8.6-.1,1.2,0,1.7.2.5.2,1,.6,1.3,1.2.3.5.5,1.1.5,1.7,0,.6-.2,1.2-.6,1.7-.3.5-.8.9-1.4,1.1-.4.1-.8.2-1.2.2-.4,0-.8-.1-1.2-.3-.4-.2-.7-.4-1-.7-.3-.3-.5-.6-.6-1"/>
      </g>
    </mask>
    <mask id="mask-7" x="201.2" y="36.3" width="8.1" height="8.1" maskUnits="userSpaceOnUse">
      <g id="path-19-inside-8_1354_32">
        <path class="st17" d="M202.4,41.4c-.2-.6-.3-1.2-.1-1.8.1-.6.4-1.1.9-1.5.4-.4,1-.7,1.6-.8.6-.1,1.2,0,1.8.2.5.2,1,.6,1.3,1.2.3.5.5,1.1.5,1.7,0,.6-.2,1.2-.6,1.7-.3.5-.8.9-1.4,1.1-.4.1-.8.2-1.2.2-.4,0-.8,0-1.2-.3-.4-.2-.7-.4-1-.7s-.5-.6-.6-1"/>
      </g>
    </mask>
    <mask id="mask-8" x="17" y="83.1" width="8.1" height="8.1" maskUnits="userSpaceOnUse">
      <g id="path-22-inside-9_1354_32">
        <path class="st17" d="M18.2,88.2c-.2-.6-.3-1.2-.1-1.8.1-.6.4-1.1.9-1.5s1-.7,1.6-.8c.6-.1,1.2,0,1.7.2.5.2,1,.6,1.3,1.2.3.5.5,1.1.5,1.7,0,.6-.2,1.2-.6,1.7-.3.5-.8.9-1.4,1.1-.4.1-.8.2-1.2.2-.4,0-.8,0-1.2-.3-.4-.2-.7-.4-1-.7-.3-.3-.5-.6-.6-1"/>
      </g>
    </mask>
    <mask id="mask-9" x="95.5" y="72.8" width="28.6" height="37.3" maskUnits="userSpaceOnUse">
      <g id="path-24-inside-10_1354_32">
        <path class="st17" d="M124.1,91.1c-15.1.4-14.7-18.2-14.7-18.2,0,0,1.3,18.5-13.8,18.9,15.1-.4,14.7,18.2,14.7,18.2,0,0-1.3-18.5,13.8-18.9"/>
      </g>
    </mask>
    <mask id="mask-10" x="225.9" y="17.9" width="17.3" height="22.5" maskUnits="userSpaceOnUse">
      <g id="path-27-inside-11_1354_32">
        <path class="st17" d="M243.1,28.9c-9.1.2-8.9-11-8.9-11,0,0,.8,11.2-8.3,11.4,9.1-.2,8.9,11,8.9,11,0,0-.8-11.2,8.3-11.4"/>
      </g>
    </mask>
    <mask id="mask-11" x="596" y="24.7" width="12.9" height="12.9" maskUnits="userSpaceOnUse">
      <g id="path-33-inside-12_1354_32">
        <path class="st17" d="M607.6,33.2c.4-1,.5-2.1.2-3.2-.2-1.1-.8-2-1.6-2.8-.8-.7-1.8-1.2-2.8-1.4-1.1-.2-2.2,0-3.1.4-1,.4-1.8,1.2-2.4,2.1-.6.9-.9,2-.8,3.1s.4,2.1,1,3c.6.9,1.5,1.6,2.5,1.9,1.4.5,2.9.5,4.2-.1,1.3-.6,2.4-1.7,2.9-3"/>
      </g>
    </mask>
    <mask id="mask-12" x="658.9" y="119.2" width="12.9" height="12.9" maskUnits="userSpaceOnUse">
      <g id="path-35-inside-13_1354_32">
        <path class="st17" d="M670.4,127.7c.4-1,.5-2.1.2-3.2s-.8-2-1.6-2.8c-.8-.7-1.8-1.2-2.8-1.4-1.1-.2-2.2,0-3.1.4-1,.4-1.8,1.2-2.4,2.1-.6.9-.9,2-.8,3.1,0,1.1.4,2.1,1,3,.6.9,1.5,1.6,2.5,1.9,1.4.5,2.9.5,4.2-.1,1.3-.6,2.4-1.7,2.9-3"/>
      </g>
    </mask>
    <mask id="mask-13" x="533.5" y="56.7" width="12.9" height="12.9" maskUnits="userSpaceOnUse">
      <g id="path-37-inside-14_1354_32">
        <path class="st17" d="M545,65.1c.4-1,.5-2.1.2-3.2-.2-1.1-.8-2-1.6-2.8-.8-.7-1.8-1.2-2.8-1.4-1.1-.2-2.2,0-3.1.4-1,.4-1.8,1.2-2.4,2.1-.6.9-.9,2-.8,3.1,0,1.1.4,2.1,1,3,.6.9,1.5,1.6,2.5,1.9,1.4.5,2.9.5,4.2-.1,1.3-.6,2.4-1.7,2.9-3"/>
      </g>
    </mask>
    <mask id="mask-14" x="572.9" y="50.7" width="8.1" height="8.1" maskUnits="userSpaceOnUse">
      <g id="path-40-inside-15_1354_32">
        <path class="st17" d="M579.8,55.8c.2-.6.3-1.2.1-1.8-.1-.6-.4-1.1-.9-1.5-.4-.4-1-.7-1.6-.8-.6-.1-1.2,0-1.7.2-.5.2-1,.6-1.3,1.2-.3.5-.5,1.1-.5,1.7,0,.6.2,1.2.6,1.7.3.5.8.9,1.4,1.1.4.1.8.2,1.2.2.4,0,.8,0,1.2-.3.4-.2.7-.4,1-.7.3-.3.5-.6.6-1"/>
      </g>
    </mask>
    <mask id="mask-15" x="655.6" y="30.2" width="8.1" height="8.1" maskUnits="userSpaceOnUse">
      <g id="path-42-inside-16_1354_32">
        <path class="st17" d="M662.4,35.3c.2-.6.3-1.2.1-1.8-.1-.6-.4-1.1-.9-1.5-.4-.4-1-.7-1.6-.8-.6-.1-1.2,0-1.8.2-.5.2-1,.6-1.3,1.2-.3.5-.5,1.1-.5,1.7,0,.6.2,1.2.6,1.7.3.5.8.9,1.4,1.1.4.1.8.2,1.2.2.4,0,.8-.1,1.2-.3.4-.2.7-.4,1-.7.3-.3.5-.6.6-1"/>
      </g>
    </mask>
    <mask id="mask-16" x="606.9" y="116.2" width="8.1" height="8.1" maskUnits="userSpaceOnUse">
      <g id="path-44-inside-17_1354_32">
        <path class="st17" d="M613.8,121.3c.2-.6.3-1.2.1-1.8s-.4-1.1-.9-1.5c-.4-.4-1-.7-1.6-.8-.6-.1-1.2,0-1.7.2-.5.2-1,.6-1.3,1.2-.3.5-.5,1.1-.5,1.7,0,.6.2,1.2.6,1.7.3.5.8.9,1.4,1.1.4.1.8.2,1.2.2.4,0,.8,0,1.2-.3.4-.2.7-.4,1-.7.3-.3.5-.6.6-1"/>
      </g>
    </mask>
    <mask id="mask-17" x="488.7" y="36.3" width="8.1" height="8.1" maskUnits="userSpaceOnUse">
      <g id="path-47-inside-18_1354_32">
        <path class="st17" d="M495.6,41.4c.2-.6.3-1.2.1-1.8-.1-.6-.4-1.1-.9-1.5-.4-.4-1-.7-1.6-.8s-1.2,0-1.7.2c-.5.2-1,.6-1.3,1.2-.3.5-.5,1.1-.5,1.7,0,.6.2,1.2.6,1.7.3.5.8.9,1.4,1.1.4.1.8.2,1.2.2.4,0,.8,0,1.2-.3.4-.2.7-.4,1-.7.3-.3.5-.6.6-1"/>
      </g>
    </mask>
    <mask id="mask-18" x="547.7" y="29" width="8.1" height="8.1" maskUnits="userSpaceOnUse">
      <g id="path-49-inside-19_1354_32">
        <path class="st17" d="M554.5,34.2c.2-.6.3-1.2.1-1.8-.1-.6-.4-1.1-.9-1.5-.4-.4-1-.7-1.6-.8-.6-.1-1.2,0-1.8.2-.5.2-1,.6-1.3,1.2-.3.5-.5,1.1-.5,1.7,0,.6.2,1.2.6,1.7.3.5.8.9,1.4,1.1.4.1.8.2,1.2.2.4,0,.8,0,1.2-.3.4-.2.7-.4,1-.7.3-.3.5-.6.6-1"/>
      </g>
    </mask>
    <mask id="mask-19" x="672.9" y="83.1" width="8.1" height="8.1" maskUnits="userSpaceOnUse">
      <g id="path-51-inside-20_1354_32">
        <path class="st17" d="M679.8,88.2c.2-.6.3-1.2.1-1.8-.1-.6-.4-1.1-.9-1.5-.4-.4-1-.7-1.6-.8-.6-.1-1.2,0-1.8.2-.5.2-1,.6-1.3,1.2-.3.5-.5,1.1-.5,1.7,0,.6.2,1.2.6,1.7.3.5.8.9,1.4,1.1.4.1.8.2,1.2.2.4,0,.8,0,1.2-.3.4-.2.7-.4,1-.7.3-.3.5-.6.6-1"/>
      </g>
    </mask>
    <mask id="mask-20" x="573.9" y="72.8" width="28.6" height="37.3" maskUnits="userSpaceOnUse">
      <g id="path-53-inside-21_1354_32">
        <path class="st17" d="M573.9,91.1c15.1.4,14.7-18.2,14.7-18.2,0,0-1.3,18.5,13.8,18.9-15.1-.4-14.7,18.2-14.7,18.2,0,0,1.3-18.5-13.8-18.9"/>
      </g>
    </mask>
    <mask id="mask-21" x="507.4" y="12.7" width="17.3" height="22.5" maskUnits="userSpaceOnUse">
      <g id="path-55-inside-22_1354_32">
        <path class="st17" d="M507.5,23.8c9.1.2,8.9-11,8.9-11,0,0-.8,11.2,8.3,11.4-9.1-.2-8.9,11-8.9,11,0,0,.8-11.2-8.3-11.4"/>
      </g>
    </mask>
    <mask id="mask-22" x="454.9" y="17.9" width="17.3" height="22.5" maskUnits="userSpaceOnUse">
      <g id="path-57-inside-23_1354_32">
        <path class="st17" d="M454.9,28.9c9.1.2,8.9-11,8.9-11,0,0-.8,11.2,8.3,11.4-9.1-.2-8.9,11-8.9,11,0,0,.8-11.2-8.3-11.4"/>
      </g>
    </mask>
    <mask id="mask-23" x="304" y="29.3" width="90.9" height="83.4" maskUnits="userSpaceOnUse">
      <g id="path-68-inside-24_1354_32">
        <path class="st17" d="M392.9,62.2c-3.8,13-42.2,48.1-43.4,49.5,0,0,0,0,0,0,0,0,0,0,0,0s0,0,0,0c0,0,0,0,0,0-1.2-1.4-39.6-36.5-43.4-49.5-1.6-5.6-1.3-11.5,1-16.8,2.3-5.3,6.3-9.7,11.5-12.3,5.1-2.6,11.1-3.4,16.7-2.2,5.6,1.2,10.7,4.4,14.3,9,3.6-4.6,8.6-7.7,14.3-9,5.7-1.2,11.6-.5,16.7,2.2,5.1,2.6,9.2,7,11.5,12.3,2.3,5.3,2.6,11.3,1,16.8"/>
      </g>
    </mask>
    <mask id="mask-24" x="324" y="48.4" width="49.3" height="45.3" maskUnits="userSpaceOnUse">
      <g id="path-71-inside-25_1354_32">
        <path class="st17" d="M371.8,66.4c-2,6.9-22.5,25.6-23.1,26.3,0,0,0,0,0,0,0,0,0,0,0,0,0,0,0,0,0,0,0,0,0,0,0,0-.6-.8-21.1-19.4-23.1-26.3-.9-3-.7-6.1.5-8.9,1.2-2.8,3.4-5.1,6.1-6.6,2.7-1.4,5.9-1.8,8.9-1.2,3,.7,5.7,2.3,7.6,4.8,1.9-2.4,4.6-4.1,7.6-4.8,3-.7,6.1-.3,8.9,1.2,2.7,1.4,4.9,3.7,6.1,6.6,1.2,2.8,1.4,6,.5,8.9"/>
      </g>
    </mask>
    <mask id="mask-25" x="340" y="62.6" width="18.2" height="17.4" maskUnits="userSpaceOnUse">
      <g id="path-74-inside-26_1354_32">
        <path class="st17" d="M357,69.4c-.7,2.4-7.7,8.7-7.9,9-.2-.3-7.2-6.6-7.9-9-.3-1-.2-2.1.2-3.1.4-1,1.2-1.8,2.1-2.2.9-.5,2-.6,3-.4,1,.2,1.9.8,2.6,1.6.6-.8,1.6-1.4,2.6-1.6,1-.2,2.1,0,3,.4s1.7,1.3,2.1,2.2c.4,1,.5,2,.2,3.1"/>
      </g>
    </mask>
    <mask id="mask-26" x="17" y="918.4" width="119.5" height="127" maskUnits="userSpaceOnUse">
      <g id="path-79-inside-27_1354_32">
        <path class="st17" d="M125.6,1019.8c.8-.2,1.6-.5,2.4-.8-6.8,8.8-15.9,15.5-26.3,19.5-10.4,3.9-21.7,4.9-32.6,2.8-10.9-2.1-21.1-7.1-29.3-14.6-8.2-7.5-14.2-17.1-17.4-27.8-3.1-10.7-3.3-22-.4-32.8,2.9-10.8,8.7-20.5,16.8-28.2,8.1-7.7,18.1-12.9,29-15.3,10.9-2.3,22.2-1.6,32.6,2.1-.8.2-1.7.4-2.5.7-6.2,1.8-11.9,4.8-16.9,8.9-5,4-9.2,9-12.3,14.7-3.1,5.7-5,11.9-5.7,18.3s-.1,12.9,1.7,19.1c1.8,6.2,4.8,12,8.9,17,4,5,9,9.2,14.7,12.3,5.6,3.1,11.8,5,18.2,5.7,6.4.7,12.9,0,19-1.7"/>
      </g>
    </mask>
    <mask id="mask-27" x="561.5" y="918.4" width="119.5" height="127" maskUnits="userSpaceOnUse">
      <g id="path-81-inside-28_1354_32">
        <path class="st17" d="M572.4,1019.8c-.8-.2-1.6-.5-2.4-.8,6.8,8.8,15.9,15.5,26.3,19.5,10.4,3.9,21.7,4.9,32.6,2.8,10.9-2.1,21.1-7.1,29.3-14.6,8.2-7.5,14.2-17.1,17.4-27.8,3.1-10.7,3.3-22,.4-32.8-2.9-10.8-8.7-20.5-16.8-28.2-8.1-7.7-18.1-12.9-29-15.3-10.9-2.3-22.2-1.6-32.6,2.1.8.2,1.7.4,2.5.7,6.2,1.8,11.9,4.8,16.9,8.9,5,4,9.2,9,12.3,14.7,3.1,5.7,5,11.9,5.7,18.3.7,6.4.1,12.9-1.7,19.1-1.8,6.2-4.8,12-8.9,17-4,5-9,9.2-14.7,12.3-5.6,3.1-11.8,5-18.2,5.7-6.4.7-12.9,0-19-1.7"/>
      </g>
    </mask>
  </defs>
  <g class="st37">
    <g>
      <path class="st18" d="M0,1065.2V22.9c0-6.1,2.4-11.9,6.7-16.2C11,2.4,16.8,0,22.9,0h653.3c6.1,0,11.9,2.4,16.2,6.7,4.3,4.3,6.7,10.1,6.7,16.2v1042.3c0,6.1-2.4,11.9-6.7,16.2s-10.1,6.7-16.2,6.7H22.9c-6.1,0-11.9-2.4-16.2-6.7-4.3-4.3-6.7-10.1-6.7-16.2Z"/>
      <path class="st6" d="M65.7,72.9h-.4c0,0,0,.4,0,.4l-4.2,32.5-3.5-32.7v-.4s-.4,0-.4,0l-25-5.4,25.2-4.8h.4c0,0,0-.4,0-.4l4.1-32,3.4,32v.4s.4,0,.4,0l25.5,5.5-25.5,4.9Z"/>
      <path class="st6" d="M62.2,71.7l-.3-.2-.3.2-14.5,10.3,10.7-14.3.2-.3-.2-.3-10.1-14.2,14,10.5.3.2.3-.2,14.2-10.2-10.5,14-.2.3.2.3,10.3,14.5-14.2-10.7Z"/>
      <path class="st5" d="M90.5,33.2c-.4-1-.5-2.1-.2-3.2.2-1.1.8-2,1.6-2.8.8-.7,1.8-1.2,2.8-1.4,1.1-.2,2.2,0,3.1.4,1,.4,1.8,1.2,2.4,2.1.6.9.9,2,.8,3.1,0,1.1-.4,2.1-1,3-.6.9-1.5,1.6-2.5,1.9-1.4.5-2.9.5-4.2-.1-1.3-.6-2.4-1.7-2.9-3"/>
      <g class="st4">
        <path class="st5" d="M97.5,36.3l.4.9h0s-.4-.9-.4-.9ZM91.4,32.8c-.3-.8-.4-1.7-.2-2.6l-2-.4c-.3,1.2-.2,2.5.3,3.7l1.9-.7ZM91.2,30.2c.2-.9.6-1.6,1.3-2.3l-1.4-1.5c-.9.9-1.6,2-1.9,3.3l2,.4ZM92.5,28c.6-.6,1.4-1,2.3-1.2l-.3-2c-1.3.2-2.4.8-3.4,1.7l1.4,1.5ZM94.8,26.8c.9-.1,1.8,0,2.6.3l.8-1.8c-1.2-.5-2.5-.7-3.7-.5l.3,2ZM97.4,27.1c.8.4,1.5,1,2,1.7l1.7-1.1c-.7-1.1-1.7-1.9-2.8-2.5l-.8,1.8ZM99.3,28.8c.5.7.7,1.6.7,2.5h2c0-1.2-.3-2.5-1-3.6l-1.7,1.1ZM100,31.3c0,.9-.3,1.7-.8,2.5l1.6,1.2c.7-1,1.2-2.3,1.2-3.6h-2ZM99.2,33.8c-.5.7-1.2,1.3-2,1.6l.7,1.9c1.2-.5,2.2-1.3,3-2.3l-1.6-1.2ZM97.1,35.4c-1.1.4-2.3.4-3.4,0l-.8,1.8c1.6.7,3.3.7,4.9.1l-.7-1.9ZM93.7,35.3c-1.1-.5-1.9-1.4-2.3-2.5l-1.9.7c.6,1.6,1.8,2.9,3.4,3.6l.8-1.8Z"/>
      </g>
      <path class="st5" d="M27.6,127.7c-.4-1-.5-2.1-.2-3.2.2-1.1.8-2,1.6-2.8.8-.7,1.8-1.2,2.8-1.4,1.1-.2,2.2,0,3.1.4,1,.4,1.8,1.2,2.4,2.1.6.9.9,2,.8,3.1,0,1.1-.4,2.1-1,3-.6.9-1.5,1.6-2.5,1.9-1.4.5-2.9.5-4.2-.1-1.3-.6-2.4-1.7-2.9-3"/>
      <g class="st14">
        <path class="st5" d="M34.6,130.8l.4.9h0l-.4-.9ZM28.5,127.3c-.3-.8-.4-1.7-.2-2.6l-2-.4c-.3,1.2-.2,2.5.3,3.7l1.9-.7ZM28.3,124.7c.2-.9.6-1.6,1.3-2.3l-1.4-1.5c-.9.9-1.6,2-1.9,3.3l2,.4ZM29.6,122.5c.6-.6,1.4-1,2.3-1.2l-.3-2c-1.3.2-2.4.8-3.4,1.7l1.4,1.5ZM31.9,121.3c.9-.1,1.8,0,2.6.3l.8-1.8c-1.2-.5-2.5-.7-3.7-.5l.3,2ZM34.5,121.6c.8.4,1.5.9,2,1.7l1.7-1.1c-.7-1.1-1.7-1.9-2.8-2.5l-.8,1.8ZM36.5,123.3c.5.7.7,1.6.7,2.5h2c0-1.2-.3-2.5-1-3.6l-1.7,1.1ZM37.1,125.8c0,.9-.3,1.7-.8,2.5l1.6,1.2c.7-1,1.2-2.3,1.2-3.6h-2ZM36.3,128.3c-.5.7-1.2,1.3-2,1.6l.7,1.9c1.2-.5,2.2-1.3,3-2.3l-1.6-1.2ZM34.3,129.9c-1.1.4-2.3.4-3.4,0l-.8,1.8c1.6.7,3.3.7,4.9.1l-.7-1.9ZM30.9,129.8c-1.1-.5-1.9-1.4-2.3-2.5l-1.9.7c.6,1.6,1.8,2.9,3.4,3.6l.8-1.8Z"/>
      </g>
      <path class="st5" d="M153,65.1c-.4-1-.5-2.1-.2-3.2.2-1.1.8-2,1.6-2.8.8-.7,1.8-1.2,2.8-1.4,1.1-.2,2.2,0,3.1.4,1,.4,1.8,1.2,2.4,2.1.6.9.9,2,.8,3.1,0,1.1-.4,2.1-1,3-.6.9-1.5,1.6-2.5,1.9-1.4.5-2.9.5-4.2-.1-1.3-.6-2.4-1.7-2.9-3"/>
      <g class="st8">
        <path class="st5" d="M160,68.3l.4.9-.4-.9ZM153.9,64.8c-.3-.8-.4-1.7-.2-2.6l-1.9-.4c-.3,1.2-.2,2.5.3,3.7l1.9-.7ZM153.7,62.2c.2-.9.6-1.6,1.3-2.3l-1.4-1.5c-.9.9-1.6,2-1.9,3.3l1.9.4ZM155,60c.6-.6,1.4-1,2.3-1.2l-.3-2c-1.3.2-2.4.8-3.4,1.7l1.4,1.5ZM157.3,58.8c.9-.1,1.8,0,2.6.3l.8-1.8c-1.2-.5-2.5-.7-3.7-.5l.3,2ZM159.9,59.1c.8.4,1.5,1,2,1.7l1.7-1.1c-.7-1.1-1.7-1.9-2.8-2.5l-.8,1.8ZM161.9,60.8c.5.7.7,1.6.7,2.5h2c0-1.2-.3-2.5-1-3.6l-1.7,1.1ZM162.5,63.3c0,.9-.3,1.7-.8,2.5l1.6,1.2c.7-1,1.2-2.3,1.2-3.6h-2ZM161.7,65.8c-.5.7-1.2,1.3-2,1.6l.7,1.9c1.2-.5,2.2-1.3,3-2.3l-1.6-1.2ZM159.7,67.4c-1.1.4-2.3.4-3.4,0l-.8,1.8c1.6.7,3.3.7,4.9.1l-.7-1.9ZM156.3,67.3c-1.1-.5-1.9-1.4-2.3-2.5l-1.9.7c.6,1.6,1.8,2.9,3.4,3.6l.8-1.8Z"/>
      </g>
      <path class="st5" d="M36.3,201.9c-.4-1-.5-2.1-.2-3.2.2-1.1.8-2,1.6-2.8.8-.7,1.8-1.2,2.8-1.4,1.1-.2,2.2,0,3.1.4s1.8,1.2,2.4,2.1c.6.9.9,2,.8,3.1s-.4,2.1-1,3c-.6.9-1.5,1.6-2.5,1.9-1.4.5-2.9.5-4.2-.1-1.3-.6-2.4-1.7-2.9-3"/>
      <g class="st9">
        <path class="st5" d="M43.4,205.1l.4.9h0l-.4-.9ZM37.3,201.6c-.3-.8-.4-1.7-.2-2.6l-2-.4c-.3,1.2-.2,2.5.3,3.7l1.9-.7ZM37.1,199c.2-.9.6-1.6,1.3-2.3l-1.4-1.5c-.9.9-1.6,2-1.9,3.3l2,.4ZM38.4,196.8c.6-.6,1.4-1,2.3-1.2l-.3-2c-1.3.2-2.4.8-3.4,1.7l1.4,1.5ZM40.7,195.6c.9-.1,1.8,0,2.6.3l.8-1.8c-1.2-.5-2.5-.7-3.7-.5l.3,2ZM43.3,195.9c.8.4,1.5.9,2,1.7l1.7-1.1c-.7-1.1-1.7-1.9-2.8-2.5l-.8,1.8ZM45.2,197.6c.5.7.7,1.6.7,2.5h2c0-1.2-.3-2.5-1-3.6l-1.7,1.1ZM45.9,200.1c0,.9-.3,1.7-.8,2.5l1.6,1.2c.7-1,1.1-2.3,1.2-3.6h-2ZM45.1,202.6c-.5.7-1.2,1.3-2,1.6l.7,1.9c1.2-.5,2.2-1.3,3-2.3l-1.6-1.2ZM43,204.2c-1.1.4-2.3.4-3.4,0l-.8,1.8c1.6.7,3.3.7,4.9.1l-.7-1.9ZM39.6,204.1c-1.1-.5-1.9-1.4-2.3-2.5l-1.9.7c.6,1.6,1.8,2.9,3.4,3.6l.8-1.8Z"/>
      </g>
      <path class="st5" d="M118.2,55.8c-.2-.6-.3-1.2-.1-1.8.1-.6.4-1.1.9-1.5.4-.4,1-.7,1.6-.8.6-.1,1.2,0,1.8.2.5.2,1,.6,1.3,1.2.3.5.5,1.1.5,1.7,0,.6-.2,1.2-.6,1.7-.3.5-.8.9-1.4,1.1-.4.1-.8.2-1.2.2-.4,0-.8,0-1.2-.3-.4-.2-.7-.4-1-.7-.3-.3-.5-.6-.6-1"/>
      <g class="st10">
        <path class="st5" d="M122.2,57.5l-.4-.9h0s.4.9.4.9ZM119.2,55.4c-.1-.4-.2-.8,0-1.2l-2-.4c-.2.8-.1,1.6.2,2.3l1.9-.7ZM119.1,54.2c0-.4.3-.8.6-1l-1.4-1.5c-.6.5-1,1.3-1.2,2l2,.4ZM119.7,53.2c.3-.3.7-.5,1.1-.5l-.3-2c-.8.1-1.5.5-2.1,1l1.4,1.5ZM120.7,52.7c.4,0,.8,0,1.2.1l.8-1.8c-.7-.3-1.5-.4-2.3-.3l.3,2ZM121.9,52.8c.4.2.7.4.9.8l1.7-1.1c-.4-.7-1-1.2-1.8-1.5l-.8,1.8ZM122.8,53.6c.2.3.3.7.3,1.1h2c0-.7-.2-1.5-.6-2.2l-1.7,1.1ZM123.1,54.7c0,.4-.1.8-.4,1.1l1.6,1.2c.5-.7.7-1.4.7-2.2h-2ZM122.7,55.9c-.2.3-.6.6-.9.7l.7,1.9c.7-.3,1.4-.8,1.9-1.4l-1.6-1.2ZM121.8,56.6c-.2,0-.5.1-.8.1v2c.5,0,1,0,1.5-.3l-.7-1.9ZM121,56.7c-.3,0-.5,0-.8-.2l-.8,1.8c.5.2,1,.3,1.5.3v-2ZM120.2,56.6c-.2-.1-.5-.3-.6-.5l-1.5,1.4c.4.4.8.7,1.3.9l.8-1.8ZM119.6,56.1c-.2-.2-.3-.4-.4-.7l-1.9.7c.2.5.5.9.8,1.3l1.5-1.4Z"/>
      </g>
      <path class="st6" d="M36,35.1h0c-.2-.5-.2-1-.1-1.5.1-.5.4-.9.7-1.3.4-.3.8-.6,1.3-.7.5,0,1,0,1.5.2.5.2.8.5,1.1,1,.3.4.4.9.4,1.4,0,.5-.2,1-.5,1.4-.3.4-.7.7-1.2.9h0c-.3.1-.6.2-1,.2-.3,0-.7,0-1-.2-.3-.1-.6-.3-.8-.6s-.4-.5-.5-.8Z"/>
      <path class="st5" d="M84.2,121.3c-.2-.6-.3-1.2-.1-1.8.1-.6.4-1.1.9-1.5.4-.4,1-.7,1.6-.8.6-.1,1.2,0,1.7.2.5.2,1,.6,1.3,1.2.3.5.5,1.1.5,1.7,0,.6-.2,1.2-.6,1.7-.3.5-.8.9-1.4,1.1-.4.1-.8.2-1.2.2-.4,0-.8,0-1.2-.3-.4-.2-.7-.4-1-.7-.3-.3-.5-.6-.6-1"/>
      <g class="st11">
        <path class="st5" d="M88.1,123.1l-.4-.9h0l.4.9ZM85.1,121c-.1-.4-.2-.8,0-1.2l-2-.4c-.2.8-.1,1.6.2,2.3l1.9-.7ZM85.1,119.8c0-.4.3-.8.6-1l-1.4-1.5c-.6.5-1,1.3-1.2,2l2,.4ZM85.6,118.8c.3-.3.7-.5,1.1-.5l-.3-2c-.8.1-1.5.5-2.1,1l1.4,1.5ZM86.7,118.2c.4,0,.8,0,1.2.1l.8-1.8c-.7-.3-1.5-.4-2.3-.3l.3,2ZM87.9,118.4c.4.2.7.4.9.8l1.7-1.1c-.4-.7-1-1.2-1.8-1.5l-.8,1.8ZM88.8,119.2c.2.3.3.7.3,1.1h2c0-.7-.2-1.5-.6-2.2l-1.7,1.1ZM89.1,120.3c0,.4-.1.8-.4,1.1l1.6,1.2c.5-.7.7-1.4.7-2.2h-2ZM88.7,121.4c-.2.3-.6.6-.9.7l.7,1.9c.7-.3,1.4-.8,1.9-1.4l-1.6-1.2ZM87.8,122.2c-.2,0-.5.1-.8.1v2c.5,0,1,0,1.5-.3l-.7-1.9ZM87,122.3c-.3,0-.5,0-.8-.2l-.8,1.8c.5.2,1,.3,1.5.3v-2ZM86.2,122.1c-.2-.1-.5-.3-.6-.5l-1.5,1.4c.4.4.8.7,1.3.9l.8-1.8ZM85.6,121.6c-.2-.2-.3-.4-.4-.7l-1.9.7c.2.5.5.9.8,1.3l1.5-1.4Z"/>
      </g>
      <path class="st5" d="M21.2,172.4c-.2-.6-.3-1.2-.1-1.8.1-.6.4-1.1.9-1.5.4-.4,1-.7,1.6-.8.6-.1,1.2,0,1.7.2.5.2,1,.6,1.3,1.2.3.5.5,1.1.5,1.7,0,.6-.2,1.2-.6,1.7-.3.5-.8.9-1.4,1.1-.4.1-.8.2-1.2.2-.4,0-.8-.1-1.2-.3-.4-.2-.7-.4-1-.7-.3-.3-.5-.6-.6-1"/>
      <g class="st13">
        <path class="st5" d="M25.2,174.2l-.4-.9h0l.4.9ZM22.2,172.1c-.1-.4-.2-.8,0-1.2l-2-.4c-.2.8-.1,1.6.2,2.3l1.9-.7ZM22.1,170.9c0-.4.3-.8.6-1l-1.4-1.5c-.6.5-1,1.3-1.2,2l2,.4ZM22.7,169.9c.3-.3.7-.5,1.1-.5l-.3-2c-.8.1-1.5.5-2.1,1l1.4,1.5ZM23.7,169.3c.4,0,.8,0,1.2.1l.8-1.8c-.7-.3-1.5-.4-2.3-.3l.3,2ZM24.9,169.5c.4.2.7.4.9.8l1.7-1.1c-.4-.7-1-1.2-1.8-1.5l-.8,1.8ZM25.8,170.2c.2.3.3.7.3,1.1h2c0-.7-.2-1.5-.6-2.2l-1.7,1.1ZM26.1,171.4c0,.4-.1.8-.4,1.1l1.6,1.2c.5-.7.7-1.4.7-2.2h-2ZM25.7,172.5c-.2.3-.6.6-.9.7l.7,1.9c.7-.3,1.4-.8,1.9-1.4l-1.6-1.2ZM24.8,173.2c-.2,0-.5.1-.8.1v2c.5,0,1,0,1.5-.3l-.7-1.9ZM24,173.4c-.3,0-.5,0-.8-.2l-.8,1.8c.5.2,1,.3,1.5.3v-2ZM23.2,173.2c-.2-.1-.5-.3-.6-.5l-1.5,1.4c.4.4.8.7,1.3.9l.8-1.8ZM22.6,172.7c-.2-.2-.3-.4-.4-.7l-1.9.7c.2.5.5.9.8,1.3l1.5-1.4Z"/>
      </g>
      <path class="st5" d="M202.4,41.4c-.2-.6-.3-1.2-.1-1.8.1-.6.4-1.1.9-1.5.4-.4,1-.7,1.6-.8.6-.1,1.2,0,1.8.2.5.2,1,.6,1.3,1.2.3.5.5,1.1.5,1.7,0,.6-.2,1.2-.6,1.7-.3.5-.8.9-1.4,1.1-.4.1-.8.2-1.2.2-.4,0-.8,0-1.2-.3-.4-.2-.7-.4-1-.7s-.5-.6-.6-1"/>
      <g class="st12">
        <path class="st5" d="M206.4,43.2l-.4-.9h0s.4.9.4.9ZM203.4,41c-.1-.4-.2-.8,0-1.2l-2-.4c-.2.8-.1,1.6.2,2.3l1.9-.7ZM203.3,39.9c0-.4.3-.8.6-1l-1.4-1.5c-.6.5-1,1.3-1.2,2l2,.4ZM203.9,38.8c.3-.3.7-.5,1.1-.5l-.3-2c-.8.1-1.5.5-2.1,1l1.4,1.5ZM204.9,38.3c.4,0,.8,0,1.2.1l.8-1.8c-.7-.3-1.5-.4-2.3-.3l.3,2ZM206.1,38.5c.4.2.7.4.9.8l1.7-1.1c-.4-.7-1-1.2-1.8-1.5l-.8,1.8ZM207,39.2c.2.3.3.7.3,1.1h2c0-.7-.2-1.5-.6-2.2l-1.7,1.1ZM207.3,40.4c0,.4-.1.8-.4,1.1l1.6,1.2c.5-.7.7-1.4.7-2.2h-2ZM206.9,41.5c-.2.3-.6.6-.9.7l.7,1.9c.7-.3,1.4-.8,1.9-1.4l-1.6-1.2ZM206,42.2c-.2,0-.5.1-.8.1v2c.5,0,1,0,1.5-.3l-.7-1.9ZM205.2,42.4c-.3,0-.5,0-.8-.2l-.8,1.8c.5.2,1,.3,1.5.3v-2ZM204.4,42.2c-.2-.1-.5-.3-.6-.5l-1.5,1.4c.4.4.8.7,1.3.9l.8-1.8ZM203.8,41.7c-.2-.2-.3-.4-.4-.7l-1.9.7c.2.5.5.9.8,1.3l1.5-1.4Z"/>
      </g>
      <path class="st6" d="M143.9,34h0c-.2-.5-.2-1-.1-1.5.1-.5.4-.9.7-1.3.4-.3.8-.6,1.3-.7.5,0,1,0,1.5.2.5.2.8.5,1.1,1,.3.4.4.9.4,1.4,0,.5-.2,1-.5,1.4-.3.4-.7.7-1.2.9h0c-.3.1-.6.2-1,.2-.3,0-.7,0-1-.2-.3-.1-.6-.3-.8-.6-.2-.2-.4-.5-.5-.8Z"/>
      <path class="st5" d="M18.2,88.2c-.2-.6-.3-1.2-.1-1.8.1-.6.4-1.1.9-1.5s1-.7,1.6-.8c.6-.1,1.2,0,1.7.2.5.2,1,.6,1.3,1.2.3.5.5,1.1.5,1.7,0,.6-.2,1.2-.6,1.7-.3.5-.8.9-1.4,1.1-.4.1-.8.2-1.2.2-.4,0-.8,0-1.2-.3-.4-.2-.7-.4-1-.7-.3-.3-.5-.6-.6-1"/>
      <g class="st16">
        <path class="st5" d="M22.1,90l-.4-.9h0s.4.9.4.9ZM19.1,87.9c-.1-.4-.2-.8,0-1.2l-2-.4c-.2.8-.1,1.6.2,2.3l1.9-.7ZM19.1,86.7c0-.4.3-.8.6-1l-1.4-1.5c-.6.5-1,1.3-1.2,2l2,.4ZM19.6,85.6c.3-.3.7-.5,1.1-.5l-.3-2c-.8.1-1.5.5-2.1,1l1.4,1.5ZM20.7,85.1c.4,0,.8,0,1.2.1l.8-1.8c-.7-.3-1.5-.4-2.3-.3l.3,2ZM21.9,85.3c.4.2.7.4.9.8l1.7-1.1c-.4-.7-1-1.2-1.8-1.5l-.8,1.8ZM22.8,86c.2.3.3.7.3,1.1h2c0-.7-.2-1.5-.6-2.2l-1.7,1.1ZM23.1,87.2c0,.4-.1.8-.4,1.1l1.6,1.2c.5-.7.7-1.4.7-2.2h-2ZM22.7,88.3c-.2.3-.6.6-.9.7l.7,1.9c.7-.3,1.4-.8,1.9-1.4l-1.6-1.2ZM21.8,89c-.2,0-.5.1-.8.1v2c.5,0,1,0,1.5-.3l-.7-1.9ZM21,89.2c-.3,0-.5,0-.8-.2l-.8,1.8c.5.2,1,.3,1.5.3v-2ZM20.2,89c-.2-.1-.5-.3-.6-.5l-1.5,1.4c.4.4.8.7,1.3.9l.8-1.8ZM19.6,88.5c-.2-.2-.3-.4-.4-.7l-1.9.7c.2.5.5.9.8,1.3l1.5-1.4Z"/>
      </g>
      <path class="st5" d="M124.1,91.1c-15.1.4-14.7-18.2-14.7-18.2,0,0,1.3,18.5-13.8,18.9,15.1-.4,14.7,18.2,14.7,18.2,0,0-1.3-18.5,13.8-18.9"/>
      <g class="st15">
        <path class="st5" d="M109.4,72.9h1c0,0-2,0-2,0h1ZM95.5,91.8v-1s0,2,0,2v-1ZM110.3,110.1h-1c0,0,2,0,2,0h-1ZM124.1,90.1c-3.6,0-6.1-.9-8-2.5-1.9-1.5-3.2-3.7-4.1-5.9-.9-2.2-1.3-4.4-1.5-6.1,0-.8-.1-1.5-.2-2,0-.2,0-.4,0-.6,0,0,0-.1,0-.1h0s0,0,0,0t-1,0-1,0h0s0,0,0,0c0,0,0,0,0,.2,0,.1,0,.4,0,.6,0,.5,0,1.3.2,2.2.2,1.8.6,4.2,1.6,6.6.9,2.4,2.4,4.9,4.7,6.7,2.3,1.8,5.3,3,9.3,2.9v-2ZM109.4,72.9q-1,0-1,0s0,0,0,0h0s0,0,0,0c0,0,0,0,0,0,0,0,0,0,0,.1,0,.1,0,.3,0,.6,0,.5,0,1.2,0,2-.1,1.7-.4,3.9-1.2,6.2-.7,2.2-1.9,4.4-3.8,6.1-1.8,1.6-4.3,2.8-7.9,2.9v2c4.1,0,7-1.4,9.2-3.4,2.2-1.9,3.5-4.5,4.3-6.9.8-2.4,1.1-4.9,1.2-6.7,0-.9,0-1.7,0-2.2,0-.3,0-.5,0-.6,0,0,0-.1,0-.2,0,0,0,0,0,0h0s0,0,0,0h0s0,0-1,0ZM95.6,92.8c3.6,0,6.1.9,8,2.5,1.9,1.5,3.2,3.7,4.1,5.9.9,2.2,1.3,4.4,1.5,6.1,0,.8.1,1.5.2,2,0,.2,0,.4,0,.6h0c0,.2,0,.2,0,.2h0s0,0,0,0h1q1,0,1,0h0s0,0,0,0v-.2c0-.1,0-.4,0-.6,0-.5,0-1.3-.2-2.2-.2-1.8-.6-4.2-1.6-6.6-.9-2.4-2.4-4.9-4.7-6.7-2.3-1.8-5.3-3-9.3-2.9v2ZM110.3,110.1h1c0,0,0,0,0,0h0s0,0,0,0c0,0,0,0,0,0,0,0,0,0,0-.1,0-.1,0-.3,0-.6,0-.5,0-1.2,0-2,.1-1.7.4-3.9,1.2-6.2.7-2.2,1.9-4.4,3.8-6.1,1.8-1.6,4.3-2.8,7.9-2.9v-2c-4.1.1-7,1.4-9.2,3.4-2.2,1.9-3.5,4.5-4.3,6.9-.8,2.4-1.1,4.9-1.2,6.7,0,.9,0,1.7,0,2.2,0,.3,0,.5,0,.6,0,0,0,.1,0,.2,0,0,0,0,0,0,0,0,0,0,0,0s0,0,0,0h0s0,0,1,0Z"/>
      </g>
      <path class="st6" d="M182.1,30.8c.1.4.2.8.3,1.2.4-2.9,1.8-6.8,5.9-7.9-.3,0-.6-.1-.9-.2M182.1,30.8c0-.4.2-.9.4-1.4.5-1.5,1.3-3,2.6-4.1.7-.6,1.4-1.1,2.4-1.4M182.1,30.8c0,.4-.2.8-.2,1.2M182.1,30.8c-.1-.4-.3-.9-.4-1.3-.6-1.4-1.4-2.9-2.8-4-.7-.6-1.5-1-2.4-1.3.9-.3,1.7-.8,2.4-1.4,1.3-1.2,2.1-2.7,2.6-4.1.2-.5.3-.9.4-1.4.1.4.3.9.4,1.3.6,1.4,1.4,2.9,2.8,4,.7.6,1.5,1,2.4,1.3"/>
      <path class="st5" d="M243.1,28.9c-9.1.2-8.9-11-8.9-11,0,0,.8,11.2-8.3,11.4,9.1-.2,8.9,11,8.9,11,0,0-.8-11.2,8.3-11.4"/>
      <g class="st19">
        <path class="st5" d="M234.2,17.9h1c0,0-2,0-2,0h1ZM225.9,29.3v-1s0,2,0,2v-1ZM234.8,40.3h-1c0,0,2,0,2,0h-1ZM243.1,27.9c-2.1,0-3.5-.5-4.6-1.4-1.1-.9-1.8-2.1-2.3-3.4-.5-1.3-.7-2.6-.9-3.6,0-.5,0-.9,0-1.2,0-.1,0-.3,0-.3h0c0,0,0,0,0,0h0s0,0,0,0h0s0,0-1,0q-1,0-1,0h0s0,0,0,0h0c0,.2,0,.3,0,.5,0,.3,0,.8.1,1.3.1,1.1.4,2.6,1,4.1.6,1.5,1.5,3,2.9,4.2,1.5,1.2,3.4,1.9,5.9,1.8v-2ZM234.2,17.9q-1,0-1,0h0s0,0,0,0c0,0,0,0,0,0,0,0,0,0,0,0,0,0,0,0,0,0,0,0,0,.2,0,.3,0,.3,0,.7,0,1.2,0,1-.2,2.3-.7,3.6-.4,1.3-1.1,2.6-2.2,3.5-1,.9-2.5,1.6-4.5,1.6v2c2.6,0,4.4-.9,5.8-2.1,1.4-1.2,2.2-2.8,2.7-4.3.5-1.5.7-3,.8-4.1,0-.6,0-1,0-1.3,0-.2,0-.3,0-.4,0,0,0,0,0-.1,0,0,0,0,0,0h0s0,0,0,0h0s0,0-1,0ZM225.9,30.3c2.1,0,3.5.5,4.6,1.4,1.1.9,1.8,2.1,2.3,3.4.5,1.3.7,2.6.9,3.6,0,.5,0,.9,0,1.2,0,.1,0,.3,0,.3,0,0,0,0,0,0h0s0,0,0,0h0s0,0,1,0q1,0,1,0h0c0,0,0-.1,0-.2,0,0,0-.2,0-.4,0-.3,0-.8-.1-1.3-.1-1.1-.4-2.6-1-4.1-.6-1.5-1.5-3-2.9-4.2-1.5-1.2-3.4-1.9-5.9-1.8v2ZM234.8,40.3q1,0,1,0s0,0,0,0t0,0s0,0,0,0c0,0,0,0,0,0,0,0,0,0,0,0,0,0,0-.2,0-.3,0-.3,0-.7,0-1.2,0-1,.2-2.3.7-3.6.4-1.3,1.1-2.6,2.2-3.5,1-.9,2.5-1.6,4.5-1.6v-2c-2.6,0-4.4.9-5.8,2.1-1.4,1.2-2.2,2.8-2.7,4.3-.5,1.5-.7,3-.8,4.1,0,.6,0,1,0,1.3,0,.2,0,.3,0,.4,0,0,0,0,0,.1,0,0,0,0,0,0h0s0,0,1,0Z"/>
      </g>
      <path class="st6" d="M29.9,242c.1.4.2.8.3,1.2.4-2.9,1.8-6.8,5.9-7.9-.3,0-.6-.1-.9-.2M29.9,242c.1-.4.2-.9.4-1.4.5-1.5,1.3-3,2.6-4.1.7-.6,1.4-1.1,2.4-1.4M29.9,242c0,.4-.2.8-.2,1.2M29.9,242c-.1-.4-.3-.9-.4-1.3-.6-1.4-1.4-2.9-2.8-4-.7-.6-1.5-1-2.4-1.3.9-.3,1.7-.8,2.4-1.4,1.3-1.2,2.1-2.7,2.6-4.1.2-.5.3-.9.4-1.4.1.4.3.9.4,1.3.6,1.4,1.4,2.9,2.8,4,.7.6,1.5,1,2.4,1.3"/>
      <path class="st6" d="M61,153.2c1.3,1.1,3,1.9,4.9,2.4-1.9.6-3.5,1.5-4.8,2.6-2.1,1.9-3.4,4.3-4.2,6.7-.4,1.3-.7,2.5-.9,3.7-.3-1.2-.6-2.4-1.1-3.6-.9-2.4-2.3-4.7-4.5-6.5-1.3-1.1-3-1.9-4.9-2.4,1.9-.6,3.5-1.5,4.8-2.6,2.1-1.9,3.4-4.3,4.2-6.7.4-1.3.7-2.5.9-3.7.3,1.2.6,2.4,1.1,3.6.9,2.4,2.3,4.7,4.5,6.5Z"/>
      <path class="st6" d="M632.7,73.3v-.4s-.4,0-.4,0l-25.5-4.9,25.5-5.5h.4c0,0,0-.4,0-.4l3.4-32,4.1,32v.4s.4,0,.4,0l25.2,4.8-25,5.4h-.4c0,0,0,.4,0,.4l-3.4,32.7-4.2-32.5Z"/>
      <path class="st6" d="M636.4,71.7l-.3-.2-.3.2-14.2,10.7,10.3-14.5.2-.3-.2-.3-10.5-14,14.2,10.2.3.2.3-.2,14-10.5-10.1,14.2-.2.3.2.3,10.7,14.3-14.5-10.3Z"/>
      <path class="st5" d="M607.6,33.2c.4-1,.5-2.1.2-3.2-.2-1.1-.8-2-1.6-2.8-.8-.7-1.8-1.2-2.8-1.4-1.1-.2-2.2,0-3.1.4-1,.4-1.8,1.2-2.4,2.1-.6.9-.9,2-.8,3.1s.4,2.1,1,3c.6.9,1.5,1.6,2.5,1.9,1.4.5,2.9.5,4.2-.1,1.3-.6,2.4-1.7,2.9-3"/>
      <g class="st22">
        <path class="st5" d="M600.5,36.3l-.4.9h0s.4-.9.4-.9ZM608.5,33.5c.5-1.2.5-2.5.3-3.7l-2,.4c.2.9.1,1.8-.2,2.6l1.9.7ZM608.8,29.8c-.3-1.2-.9-2.4-1.9-3.3l-1.4,1.5c.6.6,1.1,1.4,1.3,2.3l2-.4ZM606.9,26.5c-.9-.9-2.1-1.5-3.4-1.7l-.3,2c.9.1,1.7.6,2.3,1.2l1.4-1.5ZM603.5,24.8c-1.3-.2-2.6,0-3.7.5l.8,1.8c.8-.4,1.7-.5,2.6-.3l.3-2ZM599.8,25.3c-1.2.5-2.2,1.4-2.8,2.5l1.7,1.1c.5-.7,1.2-1.3,2-1.7l-.8-1.8ZM597,27.8c-.7,1.1-1,2.3-1,3.6h2c0-.9.2-1.8.7-2.6l-1.7-1.1ZM596,31.4c0,1.3.4,2.5,1.2,3.6l1.6-1.2c-.5-.7-.8-1.6-.8-2.5h-2ZM597.2,34.9c.7,1,1.8,1.8,3,2.3l.7-1.9c-.8-.3-1.5-.9-2-1.6l-1.6,1.2ZM600.1,37.2c1.6.6,3.4.6,4.9-.1l-.8-1.8c-1.1.5-2.3.5-3.4,0l-.7,1.9ZM605.1,37.1c1.6-.7,2.8-2,3.4-3.6l-1.9-.7c-.4,1.1-1.3,2-2.3,2.5l.8,1.8Z"/>
      </g>
      <path class="st5" d="M670.4,127.7c.4-1,.5-2.1.2-3.2s-.8-2-1.6-2.8c-.8-.7-1.8-1.2-2.8-1.4-1.1-.2-2.2,0-3.1.4-1,.4-1.8,1.2-2.4,2.1-.6.9-.9,2-.8,3.1,0,1.1.4,2.1,1,3,.6.9,1.5,1.6,2.5,1.9,1.4.5,2.9.5,4.2-.1,1.3-.6,2.4-1.7,2.9-3"/>
      <g class="st26">
        <path class="st5" d="M663.4,130.8l-.4.9.4-.9ZM671.3,128c.5-1.2.5-2.5.3-3.7l-2,.4c.2.9.1,1.8-.2,2.6l1.9.7ZM671.6,124.3c-.3-1.2-.9-2.4-1.9-3.3l-1.4,1.5c.6.6,1.1,1.4,1.3,2.3l2-.4ZM669.8,121c-.9-.9-2.1-1.5-3.4-1.7l-.3,2c.9.1,1.7.6,2.3,1.2l1.4-1.5ZM666.4,119.3c-1.3-.2-2.6,0-3.7.5l.8,1.8c.8-.4,1.7-.5,2.6-.3l.3-2ZM662.7,119.8c-1.2.5-2.2,1.4-2.8,2.5l1.7,1.1c.5-.7,1.2-1.3,2-1.7l-.8-1.8ZM659.8,122.3c-.7,1.1-1,2.3-1,3.6h2c0-.9.2-1.8.7-2.6l-1.7-1.1ZM658.9,125.9c0,1.3.4,2.5,1.2,3.6l1.6-1.2c-.5-.7-.8-1.6-.8-2.5h-2ZM660,129.4c.7,1,1.8,1.8,3,2.3l.7-1.9c-.8-.3-1.5-.9-2-1.6l-1.6,1.2ZM663,131.7c1.6.6,3.4.6,4.9-.1l-.8-1.8c-1.1.5-2.3.5-3.4,0l-.7,1.9ZM667.9,131.6c1.6-.7,2.8-2,3.4-3.6l-1.9-.7c-.4,1.1-1.3,2-2.3,2.5l.8,1.8Z"/>
      </g>
      <path class="st5" d="M545,65.1c.4-1,.5-2.1.2-3.2-.2-1.1-.8-2-1.6-2.8-.8-.7-1.8-1.2-2.8-1.4-1.1-.2-2.2,0-3.1.4-1,.4-1.8,1.2-2.4,2.1-.6.9-.9,2-.8,3.1,0,1.1.4,2.1,1,3,.6.9,1.5,1.6,2.5,1.9,1.4.5,2.9.5,4.2-.1,1.3-.6,2.4-1.7,2.9-3"/>
      <g class="st24">
        <path class="st5" d="M538,68.3l-.4.9.4-.9ZM545.9,65.5c.5-1.2.6-2.5.3-3.7l-2,.4c.2.9.1,1.8-.2,2.6l1.9.7ZM546.2,61.8c-.3-1.2-.9-2.4-1.9-3.3l-1.4,1.5c.6.6,1.1,1.4,1.3,2.3l2-.4ZM544.4,58.5c-.9-.9-2.1-1.5-3.4-1.7l-.3,2c.9.1,1.7.6,2.3,1.2l1.4-1.5ZM541,56.8c-1.3-.2-2.6,0-3.7.5l.8,1.8c.8-.4,1.7-.5,2.6-.3l.3-2ZM537.3,57.3c-1.2.5-2.2,1.4-2.8,2.5l1.7,1.1c.5-.7,1.2-1.3,2-1.7l-.8-1.8ZM534.4,59.7c-.7,1.1-1,2.3-1,3.6h2c0-.9.2-1.8.7-2.6l-1.7-1.1ZM533.5,63.4c0,1.3.4,2.5,1.2,3.6l1.6-1.2c-.5-.7-.8-1.6-.8-2.5h-2ZM534.6,66.9c.7,1,1.8,1.8,3,2.3l.7-1.9c-.8-.3-1.5-.9-2-1.6l-1.6,1.2ZM537.6,69.2c1.6.6,3.4.6,4.9-.1l-.8-1.8c-1.1.5-2.3.5-3.4,0l-.7,1.9ZM542.5,69.1c1.6-.7,2.8-2,3.4-3.6l-1.9-.7c-.4,1.1-1.3,2-2.3,2.5l.8,1.8Z"/>
      </g>
      <path class="st6" d="M661.2,201.8c.4-.9.4-1.9.2-2.9s-.7-1.8-1.4-2.5c-.7-.7-1.6-1.1-2.6-1.3-1-.2-2,0-2.9.4-.9.4-1.7,1.1-2.2,1.9-.5.8-.8,1.8-.8,2.8,0,1,.3,1.9.9,2.7.6.8,1.4,1.4,2.3,1.8l6.4-2.9ZM661.2,201.8c-.5,1.2-1.4,2.2-2.6,2.8-1.2.5-2.6.6-3.8.1l6.4-2.9Z"/>
      <path class="st5" d="M579.8,55.8c.2-.6.3-1.2.1-1.8-.1-.6-.4-1.1-.9-1.5-.4-.4-1-.7-1.6-.8-.6-.1-1.2,0-1.7.2-.5.2-1,.6-1.3,1.2-.3.5-.5,1.1-.5,1.7,0,.6.2,1.2.6,1.7.3.5.8.9,1.4,1.1.4.1.8.2,1.2.2.4,0,.8,0,1.2-.3.4-.2.7-.4,1-.7.3-.3.5-.6.6-1"/>
      <g class="st20">
        <path class="st5" d="M575.8,57.5l.4-.9h0s-.4.9-.4.9ZM580.7,56.1c.3-.7.3-1.6.2-2.3l-2,.4c0,.4,0,.8,0,1.2l1.9.7ZM580.9,53.8c-.2-.8-.6-1.5-1.2-2l-1.4,1.5c.3.3.5.6.6,1l2-.4ZM579.7,51.8c-.6-.5-1.3-.9-2.1-1l-.3,2c.4,0,.8.3,1.1.5l1.4-1.5ZM577.6,50.7c-.8-.1-1.6,0-2.3.3l.8,1.8c.4-.2.8-.2,1.2-.1l.3-2ZM575.3,51c-.7.3-1.3.9-1.8,1.5l1.7,1.1c.2-.3.5-.6.9-.8l-.8-1.8ZM573.5,52.5c-.4.7-.6,1.5-.6,2.3h2c0-.5,0-.9.3-1.2l-1.7-1.1ZM572.9,54.8c0,.8.3,1.6.7,2.2l1.6-1.2c-.2-.3-.4-.7-.4-1.1h-2ZM573.6,57c.5.7,1.1,1.2,1.9,1.4l.7-1.9c-.4-.1-.7-.4-.9-.7l-1.6,1.2ZM575.5,58.5c.5.2,1,.3,1.6.3v-2c-.3,0-.6,0-.8-.1l-.7,1.9ZM577,58.7c.5,0,1.1-.1,1.5-.3l-.8-1.8c-.2.1-.5.2-.8.2v2ZM578.6,58.4c.5-.2.9-.5,1.3-.9l-1.5-1.4c-.2.2-.4.4-.6.5l.8,1.8ZM579.9,57.5c.4-.4.6-.8.8-1.3l-1.9-.7c0,.3-.2.5-.4.7l1.5,1.4Z"/>
      </g>
      <path class="st5" d="M662.4,35.3c.2-.6.3-1.2.1-1.8-.1-.6-.4-1.1-.9-1.5-.4-.4-1-.7-1.6-.8-.6-.1-1.2,0-1.8.2-.5.2-1,.6-1.3,1.2-.3.5-.5,1.1-.5,1.7,0,.6.2,1.2.6,1.7.3.5.8.9,1.4,1.1.4.1.8.2,1.2.2.4,0,.8-.1,1.2-.3.4-.2.7-.4,1-.7.3-.3.5-.6.6-1"/>
      <g class="st28">
        <path class="st5" d="M658.5,37.1l.4-.9h0s-.4.9-.4.9ZM663.4,35.7c.3-.7.3-1.6.2-2.3l-2,.4c0,.4,0,.8,0,1.2l1.9.7ZM663.5,33.3c-.2-.8-.6-1.5-1.2-2l-1.4,1.5c.3.3.5.6.6,1l2-.4ZM662.4,31.3c-.6-.5-1.3-.9-2.1-1l-.3,2c.4,0,.8.3,1.1.5l1.4-1.5ZM660.3,30.3c-.8-.1-1.6,0-2.3.3l.8,1.8c.4-.2.8-.2,1.2-.1l.3-2ZM658,30.5c-.7.3-1.3.9-1.8,1.5l1.7,1.1c.2-.3.5-.6.9-.8l-.8-1.8ZM656.2,32.1c-.4.7-.6,1.5-.6,2.3h2c0-.5,0-.9.3-1.2l-1.7-1.1ZM655.6,34.3c0,.8.3,1.6.7,2.2l1.6-1.2c-.2-.3-.4-.7-.4-1.1h-2ZM656.3,36.6c.5.7,1.1,1.2,1.9,1.4l.7-1.9c-.4-.1-.7-.4-.9-.7l-1.6,1.2ZM658.2,38c.5.2,1,.3,1.6.3v-2c-.3,0-.6,0-.8-.1l-.7,1.9ZM659.7,38.3c.5,0,1.1-.1,1.5-.3l-.8-1.8c-.2.1-.5.2-.8.2v2ZM661.2,37.9c.5-.2.9-.5,1.3-.9l-1.5-1.4c-.2.2-.4.4-.6.5l.8,1.8ZM662.5,37c.4-.4.7-.8.8-1.3l-1.9-.7c0,.3-.2.5-.4.7l1.5,1.4Z"/>
      </g>
      <path class="st5" d="M613.8,121.3c.2-.6.3-1.2.1-1.8s-.4-1.1-.9-1.5c-.4-.4-1-.7-1.6-.8-.6-.1-1.2,0-1.7.2-.5.2-1,.6-1.3,1.2-.3.5-.5,1.1-.5,1.7,0,.6.2,1.2.6,1.7.3.5.8.9,1.4,1.1.4.1.8.2,1.2.2.4,0,.8,0,1.2-.3.4-.2.7-.4,1-.7.3-.3.5-.6.6-1"/>
      <g class="st23">
        <path class="st5" d="M609.9,123.1l.4-.9h0l-.4.9ZM614.7,121.7c.3-.7.3-1.6.2-2.3l-2,.4c0,.4,0,.8,0,1.2l1.9.7ZM614.9,119.4c-.2-.8-.6-1.5-1.2-2l-1.4,1.5c.3.3.5.6.6,1l2-.4ZM613.7,117.3c-.6-.5-1.3-.9-2.1-1l-.3,2c.4,0,.8.3,1.1.5l1.4-1.5ZM611.6,116.3c-.8-.1-1.6,0-2.3.3l.8,1.8c.4-.2.8-.2,1.2-.1l.3-2ZM609.3,116.6c-.7.3-1.3.9-1.8,1.5l1.7,1.1c.2-.3.5-.6.9-.8l-.8-1.8ZM607.5,118.1c-.4.7-.6,1.5-.6,2.3h2c0-.5,0-.9.3-1.2l-1.7-1.1ZM606.9,120.4c0,.8.3,1.6.7,2.2l1.6-1.2c-.2-.3-.4-.7-.4-1.1h-2ZM607.7,122.6c.5.7,1.1,1.2,1.9,1.4l.7-1.9c-.4-.1-.7-.4-.9-.7l-1.6,1.2ZM609.5,124c.5.2,1,.3,1.6.3v-2c-.3,0-.6,0-.8-.1l-.7,1.9ZM611.1,124.3c.5,0,1.1-.1,1.5-.3l-.8-1.8c-.2.1-.5.2-.8.2v2ZM612.6,123.9c.5-.2.9-.5,1.3-.9l-1.5-1.4c-.2.2-.4.3-.6.5l.8,1.8ZM613.9,123c.4-.4.6-.8.8-1.3l-1.9-.7c0,.2-.2.5-.4.7l1.5,1.4Z"/>
      </g>
      <path class="st6" d="M676.3,172.2h0c-.1.3-.3.6-.5.8-.2.2-.5.4-.8.6-.3.1-.6.2-1,.2s-.7,0-1-.2h0c-.5-.2-.9-.5-1.2-.9-.3-.4-.5-.9-.5-1.4,0-.5.1-1,.4-1.4.3-.4.7-.8,1.1-1,.5-.2,1-.3,1.5-.2.5,0,1,.3,1.3.7.4.3.6.8.7,1.3.1.5,0,1-.1,1.5Z"/>
      <path class="st5" d="M495.6,41.4c.2-.6.3-1.2.1-1.8-.1-.6-.4-1.1-.9-1.5-.4-.4-1-.7-1.6-.8s-1.2,0-1.7.2c-.5.2-1,.6-1.3,1.2-.3.5-.5,1.1-.5,1.7,0,.6.2,1.2.6,1.7.3.5.8.9,1.4,1.1.4.1.8.2,1.2.2.4,0,.8,0,1.2-.3.4-.2.7-.4,1-.7.3-.3.5-.6.6-1"/>
      <g class="st27">
        <path class="st5" d="M491.6,43.2l.4-.9h0s-.4.9-.4.9ZM496.5,41.8c.3-.7.3-1.6.2-2.3l-1.9.4c0,.4,0,.8,0,1.2l1.9.7ZM496.7,39.4c-.2-.8-.6-1.5-1.2-2l-1.4,1.5c.3.3.5.6.6,1l1.9-.4ZM495.5,37.4c-.6-.5-1.3-.9-2.1-1l-.3,2c.4,0,.8.3,1.1.5l1.4-1.5ZM493.4,36.3c-.8-.1-1.6,0-2.3.3l.8,1.8c.4-.2.8-.2,1.2-.1l.3-2ZM491.1,36.6c-.7.3-1.3.9-1.8,1.5l1.7,1.1c.2-.3.5-.6.9-.8l-.8-1.8ZM489.3,38.2c-.4.7-.6,1.5-.6,2.3h2c0-.5,0-.9.3-1.2l-1.7-1.1ZM488.7,40.4c0,.8.3,1.6.7,2.2l1.6-1.2c-.2-.3-.4-.7-.4-1.1h-2ZM489.4,42.7c.5.7,1.1,1.2,1.9,1.4l.7-1.9c-.4-.1-.7-.4-.9-.7l-1.6,1.2ZM491.3,44.1c.5.2,1,.3,1.6.3v-2c-.3,0-.6,0-.8-.1l-.7,1.9ZM492.8,44.4c.5,0,1.1-.1,1.5-.3l-.8-1.8c-.2.1-.5.2-.8.2v2ZM494.4,44c.5-.2.9-.5,1.3-.9l-1.5-1.4c-.2.2-.4.4-.6.5l.8,1.8ZM495.7,43.1c.4-.4.6-.8.8-1.3l-1.9-.7c0,.3-.2.5-.4.7l1.5,1.4Z"/>
      </g>
      <path class="st5" d="M554.5,34.2c.2-.6.3-1.2.1-1.8-.1-.6-.4-1.1-.9-1.5-.4-.4-1-.7-1.6-.8-.6-.1-1.2,0-1.8.2-.5.2-1,.6-1.3,1.2-.3.5-.5,1.1-.5,1.7,0,.6.2,1.2.6,1.7.3.5.8.9,1.4,1.1.4.1.8.2,1.2.2.4,0,.8,0,1.2-.3.4-.2.7-.4,1-.7.3-.3.5-.6.6-1"/>
      <g class="st21">
        <path class="st5" d="M550.6,35.9l.4-.9h0s-.4.9-.4.9ZM555.5,34.5c.3-.7.3-1.6.2-2.3l-2,.4c0,.4,0,.8,0,1.2l1.9.7ZM555.6,32.2c-.2-.8-.6-1.5-1.2-2l-1.4,1.5c.3.3.5.6.6,1l2-.4ZM554.5,30.2c-.6-.5-1.3-.9-2.1-1l-.3,2c.4,0,.8.3,1.1.5l1.4-1.5ZM552.4,29.1c-.8-.1-1.6,0-2.3.3l.8,1.8c.4-.2.8-.2,1.2-.1l.3-2ZM550,29.4c-.7.3-1.3.9-1.8,1.5l1.7,1.1c.2-.3.5-.6.9-.8l-.8-1.8ZM548.3,30.9c-.4.7-.6,1.5-.6,2.3h2c0-.5,0-.9.3-1.2l-1.7-1.1ZM547.7,33.2c0,.8.3,1.6.7,2.2l1.6-1.2c-.2-.3-.4-.7-.4-1.1h-2ZM548.4,35.4c.5.7,1.1,1.2,1.9,1.4l.7-1.9c-.4-.1-.7-.4-.9-.7l-1.6,1.2ZM550.3,36.9c.5.2,1,.3,1.6.3v-2c-.3,0-.6,0-.8-.1l-.7,1.9ZM551.8,37.1c.5,0,1.1-.1,1.5-.3l-.8-1.8c-.2.1-.5.2-.8.2v2ZM553.3,36.8c.5-.2.9-.5,1.3-.9l-1.5-1.4c-.2.2-.4.4-.6.5l.8,1.8ZM554.6,35.9c.4-.4.6-.8.8-1.3l-1.9-.7c0,.3-.2.5-.4.7l1.5,1.4Z"/>
      </g>
      <path class="st5" d="M679.8,88.2c.2-.6.3-1.2.1-1.8-.1-.6-.4-1.1-.9-1.5-.4-.4-1-.7-1.6-.8-.6-.1-1.2,0-1.8.2-.5.2-1,.6-1.3,1.2-.3.5-.5,1.1-.5,1.7,0,.6.2,1.2.6,1.7.3.5.8.9,1.4,1.1.4.1.8.2,1.2.2.4,0,.8,0,1.2-.3.4-.2.7-.4,1-.7.3-.3.5-.6.6-1"/>
      <g class="st25">
        <path class="st5" d="M675.9,90l.4-.9h0s-.4.9-.4.9ZM680.7,88.6c.3-.7.3-1.6.2-2.3l-2,.4c0,.4,0,.8,0,1.2l1.9.7ZM680.9,86.2c-.2-.8-.6-1.5-1.2-2l-1.4,1.5c.3.3.5.6.6,1l2-.4ZM679.7,84.2c-.6-.5-1.3-.9-2.1-1l-.3,2c.4,0,.8.3,1.1.5l1.4-1.5ZM677.6,83.1c-.8-.1-1.6,0-2.3.3l.8,1.8c.4-.2.8-.2,1.2-.1l.3-2ZM675.3,83.4c-.7.3-1.3.9-1.8,1.5l1.7,1.1c.2-.3.5-.6.9-.8l-.8-1.8ZM673.5,85c-.4.7-.6,1.5-.6,2.3h2c0-.5,0-.9.3-1.2l-1.7-1.1ZM672.9,87.2c0,.8.3,1.6.7,2.2l1.6-1.2c-.2-.3-.4-.7-.4-1.1h-2ZM673.7,89.5c.5.7,1.1,1.2,1.9,1.4l.7-1.9c-.4-.1-.7-.4-.9-.7l-1.6,1.2ZM675.5,90.9c.5.2,1,.3,1.6.3v-2c-.3,0-.6,0-.8-.1l-.7,1.9ZM677.1,91.2c.5,0,1.1-.1,1.5-.3l-.8-1.8c-.2.1-.5.2-.8.2v2ZM678.6,90.8c.5-.2.9-.5,1.3-.9l-1.5-1.4c-.2.2-.4.4-.6.5l.8,1.8ZM679.9,89.9c.4-.4.6-.8.8-1.3l-1.9-.7c0,.2-.2.5-.4.7l1.5,1.4Z"/>
      </g>
      <path class="st5" d="M573.9,91.1c15.1.4,14.7-18.2,14.7-18.2,0,0-1.3,18.5,13.8,18.9-15.1-.4-14.7,18.2-14.7,18.2,0,0,1.3-18.5-13.8-18.9"/>
      <g class="st31">
        <path class="st5" d="M588.6,72.9h1s-2,0-2,0h1ZM602.5,91.8v1s0-2,0-2v1ZM587.7,110.1h-1s2,0,2,0h-1ZM573.9,92.1c4,0,7.1-1.1,9.3-2.9,2.3-1.8,3.7-4.3,4.7-6.7.9-2.4,1.4-4.8,1.6-6.6.1-.9.1-1.6.2-2.2,0-.3,0-.5,0-.6,0,0,0-.1,0-.2h0c0,0,0,0,0,0h0s0,0-1,0q-1,0-1,0h0s0,0,0,0h0c0,0,0,.1,0,.2,0,.1,0,.3,0,.6,0,.5,0,1.2-.2,2-.2,1.7-.6,3.9-1.5,6.1-.9,2.2-2.1,4.3-4.1,5.9-1.9,1.5-4.5,2.6-8,2.5v2ZM588.6,72.9q-1,0-1,0h0s0,0,0,0c0,0,0,0,0,0,0,0,0,0,0,.2,0,.1,0,.4,0,.6,0,.5,0,1.3,0,2.2.1,1.8.4,4.2,1.2,6.7.8,2.4,2.1,5,4.3,6.9,2.2,2,5.2,3.3,9.2,3.4v-2c-3.5,0-6-1.2-7.9-2.9-1.8-1.6-3-3.8-3.8-6.1-.7-2.2-1-4.5-1.2-6.2,0-.8,0-1.5,0-2,0-.2,0-.4,0-.6,0,0,0-.1,0-.1,0,0,0,0,0,0h0s0,0,0,0t-1,0ZM602.5,90.8c-4-.1-7.1,1.1-9.3,2.9-2.3,1.8-3.7,4.3-4.7,6.7-.9,2.4-1.4,4.8-1.6,6.6-.1.9-.1,1.6-.2,2.2,0,.3,0,.5,0,.6v.2s0,0,0,0h0s0,0,1,0h1s0,0,0,0h0s0,0,0,0h0c0-.3,0-.5,0-.7,0-.5,0-1.2.2-2,.2-1.7.6-3.9,1.5-6.1.9-2.2,2.1-4.3,4.1-5.9,1.9-1.5,4.5-2.6,8-2.5v-2ZM587.7,110.1q1,0,1,0h0s0,0,0,0c0,0,0,0,0,0,0,0,0,0,0-.2,0-.1,0-.4,0-.6,0-.5,0-1.3,0-2.2-.1-1.8-.4-4.2-1.2-6.7-.8-2.4-2.1-5-4.3-6.9-2.2-2-5.2-3.3-9.2-3.4v2c3.5,0,6,1.2,7.9,2.9,1.8,1.6,3,3.8,3.8,6.1.7,2.2,1,4.5,1.2,6.2,0,.8,0,1.5,0,2,0,.2,0,.4,0,.6,0,0,0,.1,0,.1,0,0,0,0,0,0h0s0,0,0,0h1Z"/>
      </g>
      <path class="st5" d="M507.5,23.8c9.1.2,8.9-11,8.9-11,0,0-.8,11.2,8.3,11.4-9.1-.2-8.9,11-8.9,11,0,0,.8-11.2-8.3-11.4"/>
      <g class="st30">
        <path class="st5" d="M516.3,12.8h1s-2,0-2,0h1ZM524.7,24.2v1s0-2,0-2v1ZM515.8,35.2h-1s2,0,2,0h-1ZM507.4,24.8c2.5,0,4.4-.7,5.9-1.8,1.4-1.2,2.4-2.7,2.9-4.2.6-1.5.9-3,1-4.1,0-.6,0-1,.1-1.3,0-.2,0-.3,0-.4h0c0-.1,0-.1,0-.1h0s0,0-1,0q-1,0-1,0h0s0,0,0,0h0c0,.2,0,.3,0,.4,0,.3,0,.7,0,1.2-.1,1-.4,2.3-.9,3.6-.5,1.3-1.2,2.5-2.3,3.4-1.1.9-2.5,1.4-4.6,1.4v2ZM516.3,12.8q-1,0-1,0h0s0,0,0,0c0,0,0,0,0,0,0,0,0,0,0,.1,0,0,0,.2,0,.4,0,.3,0,.8,0,1.3,0,1.1.3,2.6.8,4.1.5,1.5,1.3,3.1,2.7,4.3,1.4,1.2,3.3,2.1,5.8,2.1v-2c-2,0-3.4-.7-4.5-1.6-1-.9-1.7-2.2-2.2-3.5-.4-1.3-.6-2.6-.7-3.6,0-.5,0-.9,0-1.2,0-.1,0-.3,0-.3,0,0,0,0,0,0,0,0,0,0,0,0h0s0,0,0,0h0s0,0-1,0ZM524.7,23.2c-2.5,0-4.4.7-5.9,1.8-1.4,1.2-2.4,2.7-2.9,4.2-.6,1.5-.9,3-1,4.1,0,.6,0,1-.1,1.3,0,.2,0,.3,0,.4h0c0,.1,0,.1,0,.1h0s0,0,1,0q1,0,1,0h0s0,0,0,0h0c0-.2,0-.3,0-.4,0-.3,0-.7,0-1.2.1-1,.4-2.3.9-3.6.5-1.3,1.2-2.5,2.3-3.4,1.1-.9,2.5-1.4,4.6-1.4v-2ZM515.8,35.2q1,0,1,0h0s0,0,0,0c0,0,0,0,0,0,0,0,0,0,0-.1,0,0,0-.2,0-.4,0-.3,0-.8,0-1.3,0-1.1-.3-2.6-.8-4.1-.5-1.5-1.3-3.1-2.7-4.3-1.4-1.2-3.3-2.1-5.8-2.1v2c2,0,3.4.7,4.5,1.6,1,.9,1.7,2.2,2.2,3.5.4,1.3.6,2.6.7,3.6,0,.5,0,.9,0,1.2,0,.1,0,.3,0,.3,0,0,0,0,0,0,0,0,0,0,0,0h0s0,0,0,0h0s0,0,1,0Z"/>
      </g>
      <path class="st5" d="M454.9,28.9c9.1.2,8.9-11,8.9-11,0,0-.8,11.2,8.3,11.4-9.1-.2-8.9,11-8.9,11,0,0,.8-11.2-8.3-11.4"/>
      <g class="st29">
        <path class="st5" d="M463.8,17.9h1s-2,0-2,0h1ZM472.1,29.3v1s0-2,0-2v1ZM463.2,40.3h-1s2,0,2,0h-1ZM454.9,29.9c2.5,0,4.4-.7,5.9-1.8,1.4-1.2,2.4-2.7,2.9-4.2.6-1.5.9-3,1-4.1,0-.6,0-1,.1-1.3,0-.2,0-.3,0-.4h0c0-.1,0-.1,0-.2h0s0,0-1,0q-1,0-1,0h0s0,0,0,0h0c0,.2,0,.3,0,.4,0,.3,0,.7,0,1.2-.1,1-.4,2.3-.9,3.6-.5,1.3-1.2,2.5-2.3,3.4-1.1.9-2.5,1.4-4.6,1.4v2ZM463.8,17.9q-1,0-1,0h0s0,0,0,0c0,0,0,0,0,0,0,0,0,0,0,.1,0,0,0,.2,0,.4,0,.3,0,.8,0,1.3,0,1.1.3,2.6.8,4.1.5,1.5,1.3,3.1,2.7,4.3,1.4,1.2,3.3,2.1,5.8,2.1v-2c-2,0-3.4-.7-4.5-1.6-1-.9-1.7-2.2-2.2-3.5-.4-1.3-.6-2.6-.7-3.6,0-.5,0-.9,0-1.2,0-.1,0-.3,0-.3,0,0,0,0,0,0,0,0,0,0,0,0h0s0,0,0,0h0s0,0-1,0ZM472.1,28.3c-2.5,0-4.4.7-5.9,1.8-1.4,1.2-2.4,2.7-2.9,4.2-.6,1.5-.9,3-1,4.1,0,.6,0,1-.1,1.3,0,.2,0,.3,0,.4h0c0,.1,0,.1,0,.1h0s0,0,1,0q1,0,1,0h0s0,0,0,0h0c0-.2,0-.3,0-.4,0-.3,0-.7,0-1.2.1-1,.4-2.3.9-3.6.5-1.3,1.2-2.5,2.3-3.4,1.1-.9,2.5-1.4,4.6-1.4v-2ZM463.2,40.3q1,0,1,0h0s0,0,0,0c0,0,0,0,0,0,0,0,0,0,0-.1,0,0,0-.2,0-.4,0-.3,0-.8,0-1.3,0-1.1-.3-2.6-.8-4.1-.5-1.5-1.3-3.1-2.7-4.3-1.4-1.2-3.3-2.1-5.8-2.1v2c2,0,3.4.7,4.5,1.6,1,.9,1.7,2.2,2.2,3.5.4,1.3.6,2.6.7,3.6,0,.5,0,.9,0,1.2,0,.1,0,.3,0,.3,0,0,0,0,0,0,0,0,0,0,0,0h0s0,0,0,0h0s0,0,1,0Z"/>
      </g>
      <path class="st6" d="M673.7,235.3c.3.1.6.2.9.3M673.7,235.3c.3,0,.6-.2.9-.2-4.1-1.1-5.5-5-5.9-7.9l5.9,8.4M673.7,235.3c-.9-.3-1.7-.8-2.4-1.4-1.3-1.2-2.1-2.7-2.6-4.1-.2-.5-.3-.9-.4-1.4-.1.4-.3.9-.4,1.3-.6,1.4-1.4,2.9-2.8,4-.7.6-1.5,1-2.4,1.3M673.7,235.3c-.9.3-1.7.8-2.4,1.3-1.4,1.1-2.2,2.6-2.8,4-.2.5-.3.9-.4,1.3M674.6,235.6c-4.2.9-5.7,4.7-6.3,7.6,0-.4-.1-.8-.2-1.2M674.6,235.6l-12.7-.8c.3,0,.6.2.9.3M668,242c0-.4-.2-.9-.4-1.4-.5-1.5-1.3-3-2.6-4.1-.7-.6-1.4-1.1-2.4-1.4M668,242c-.1.4-.2.8-.3,1.2-.4-2.9-1.8-6.8-5.9-7.9.3,0,.6-.1.9-.2"/>
      <path class="st6" d="M641.5,146.7c.5-1.2.8-2.5,1.1-3.6.2,1.2.5,2.4.9,3.7.8,2.4,2.1,4.8,4.2,6.7,1.3,1.2,2.9,2.1,4.8,2.6-2,.5-3.6,1.3-4.9,2.4-2.2,1.8-3.6,4.1-4.5,6.5-.5,1.2-.8,2.5-1.1,3.6-.2-1.2-.5-2.4-.9-3.7-.8-2.4-2.1-4.8-4.2-6.7-1.3-1.2-2.9-2.1-4.8-2.6,2-.5,3.6-1.3,4.9-2.4,2.2-1.8,3.6-4.1,4.5-6.5Z"/>
      <path class="st6" d="M118.5,952.4c.5-1.2.8-2.5,1.1-3.6.2,1.2.5,2.4.9,3.7.8,2.4,2.1,4.8,4.2,6.7,1.3,1.2,2.9,2.1,4.8,2.6-2,.5-3.6,1.3-4.9,2.4-2.2,1.8-3.6,4.1-4.5,6.5-.5,1.2-.8,2.5-1.1,3.6-.2-1.2-.5-2.4-.9-3.7-.8-2.4-2.1-4.8-4.2-6.7-1.3-1.2-2.9-2.1-4.8-2.6,2-.5,3.6-1.3,4.9-2.4,2.2-1.8,3.6-4.1,4.5-6.5Z"/>
      <path class="st6" d="M580,952.4c.5-1.2.8-2.5,1.1-3.6.2,1.2.5,2.4.9,3.7.8,2.4,2.1,4.8,4.2,6.7,1.3,1.2,2.9,2.1,4.8,2.6-2,.5-3.6,1.3-4.9,2.4-2.2,1.8-3.6,4.1-4.5,6.5-.5,1.2-.8,2.5-1.1,3.6-.2-1.2-.5-2.4-.9-3.7-.8-2.4-2.1-4.8-4.2-6.7-1.3-1.2-2.9-2.1-4.8-2.6,2-.5,3.6-1.3,4.9-2.4,2.2-1.8,3.6-4.1,4.5-6.5Z"/>
      <path class="st3" d="M70,1033.4c-11.1,0-20-8.9-20-20V353.1c0-169.4,134.1-306.7,299.5-306.7s299.5,137.3,299.5,306.7v659.8"/>
      <path class="st7" d="M396.5,65.6c0,9.3-2.8,18.4-7.9,26.1-5.2,7.7-12.5,13.8-21.1,17.3-8.6,3.6-18,4.5-27.2,2.7-9.1-1.8-17.5-6.3-24.1-12.9-6.6-6.6-11.1-15-12.9-24.1-1.8-9.1-.9-18.6,2.7-27.2,3.6-8.6,9.6-15.9,17.3-21.1,7.7-5.2,16.8-7.9,26.1-7.9s12.3,1.2,18,3.6c5.7,2.4,10.9,5.8,15.3,10.2,4.4,4.4,7.8,9.6,10.2,15.3,2.4,5.7,3.6,11.8,3.6,18Z"/>
      <path class="st2" d="M395.4,76.6c6-25.6-9.8-51.2-35.3-57.2-25.5-6-51.1,9.8-57.2,35.3-6,25.6,9.8,51.2,35.3,57.2,25.5,6,51.1-9.8,57.2-35.3Z"/>
      <path class="st18" d="M392.9,62.2c-3.8,13-42.2,48.1-43.4,49.5,0,0,0,0,0,0,0,0,0,0,0,0s0,0,0,0c0,0,0,0,0,0-1.2-1.4-39.6-36.5-43.4-49.5-1.6-5.6-1.3-11.5,1-16.8,2.3-5.3,6.3-9.7,11.5-12.3,5.1-2.6,11.1-3.4,16.7-2.2,5.6,1.2,10.7,4.4,14.3,9,3.6-4.6,8.6-7.7,14.3-9,5.7-1.2,11.6-.5,16.7,2.2,5.1,2.6,9.2,7,11.5,12.3,2.3,5.3,2.6,11.3,1,16.8"/>
      <g class="st34">
        <path class="st5" d="M349.5,111.8l-.8-.6-.2.3v.4h1ZM349.4,111.8h1v-.4l-.2-.3-.8.6ZM306,62.2l1-.3h0s-1,.3-1,.3ZM349.5,39.9l-.8.6.8,1,.8-1-.8-.6ZM392,61.9c-.4,1.5-1.4,3.4-2.8,5.5-1.4,2.2-3.2,4.6-5.3,7.1-4.1,5.1-9.3,10.7-14.4,16-5.1,5.3-10.1,10.2-14,13.9-1.9,1.8-3.5,3.4-4.7,4.5-.6.6-1.1,1-1.4,1.4-.3.3-.6.6-.7.7l1.5,1.3s0,0,0,0c0,0,0,0,.1-.1.1-.1.2-.2.4-.4.3-.3.8-.8,1.4-1.3,1.2-1.1,2.8-2.7,4.7-4.5,3.8-3.7,8.9-8.6,14-13.9,5.1-5.3,10.4-11,14.5-16.2,2.1-2.6,3.9-5.1,5.4-7.3,1.4-2.2,2.5-4.3,3-6.1l-1.9-.6ZM348.5,111.8c0-.3.1-.5.3-.7l1.4,1.4c.2-.2.3-.4.3-.7h-2ZM348.8,111.1c.2-.2.4-.3.7-.3v2c.3,0,.5-.1.7-.3l-1.4-1.4ZM349.5,110.8c.3,0,.5.1.7.3l-1.4,1.4c.2.2.4.3.7.3v-2ZM350.2,111.1c.2.2.3.4.3.7h-2c0,.3.1.5.3.7l1.4-1.4ZM350.2,111.1c-.1-.1-.4-.4-.7-.7-.4-.3-.8-.8-1.4-1.4-1.2-1.1-2.8-2.7-4.7-4.5-3.8-3.7-8.9-8.6-14-13.9-5.1-5.3-10.3-10.9-14.4-16-2.1-2.6-3.9-5-5.2-7.1-1.4-2.2-2.4-4.1-2.8-5.5l-1.9.6c.5,1.8,1.6,3.8,3,6.1,1.4,2.2,3.3,4.7,5.4,7.3,4.2,5.2,9.4,10.9,14.5,16.2,5.1,5.3,10.2,10.2,14,13.9,1.9,1.8,3.5,3.4,4.7,4.5.6.6,1.1,1,1.4,1.3.2.2.3.3.4.4,0,0,0,0,.1.1,0,0,0,0,0,0l1.5-1.3ZM307,61.9c-1.6-5.3-1.2-11,1-16.1l-1.8-.8c-2.4,5.5-2.7,11.7-1.1,17.5l1.9-.6ZM307.9,45.8c2.2-5.1,6.1-9.3,11-11.8l-.9-1.8c-5.4,2.8-9.6,7.3-12,12.8l1.8.8ZM319,34c4.9-2.5,10.6-3.3,16-2.1l.4-2c-5.9-1.3-12-.5-17.4,2.3l.9,1.8ZM335,31.9c5.4,1.2,10.3,4.2,13.7,8.6l1.6-1.2c-3.7-4.7-9-8-14.8-9.3l-.4,2ZM350.3,40.5c3.4-4.4,8.3-7.4,13.7-8.6l-.4-2c-5.9,1.3-11.1,4.6-14.8,9.3l1.6,1.2ZM363.9,31.9c5.4-1.2,11.1-.5,16,2.1l.9-1.8c-5.4-2.8-11.5-3.6-17.4-2.3l.4,2ZM380,34c4.9,2.5,8.8,6.7,11,11.8l1.8-.8c-2.4-5.5-6.6-10.1-12-12.8l-.9,1.8ZM391,45.8c2.2,5.1,2.5,10.8,1,16.1l1.9.6c1.7-5.8,1.3-12-1.1-17.5l-1.8.8Z"/>
      </g>
      <path class="st3" d="M392.9,62.2c-3.8,13-42.2,48.1-43.4,49.5,0,0,0,0,0,0,0,0,0,0,0,0s0,0,0,0c0,0,0,0,0,0-1.2-1.4-39.6-36.5-43.4-49.5-1.6-5.6-1.3-11.5,1-16.8,2.3-5.3,6.3-9.7,11.5-12.3,5.1-2.6,11.1-3.4,16.7-2.2,5.6,1.2,10.7,4.4,14.3,9,3.6-4.6,8.6-7.7,14.3-9,5.7-1.2,11.6-.5,16.7,2.2,5.1,2.6,9.2,7,11.5,12.3,2.3,5.3,2.6,11.3,1,16.8h0Z"/>
      <path class="st18" d="M371.8,66.4c-2,6.9-22.5,25.6-23.1,26.3,0,0,0,0,0,0,0,0,0,0,0,0,0,0,0,0,0,0,0,0,0,0,0,0-.6-.8-21.1-19.4-23.1-26.3-.9-3-.7-6.1.5-8.9,1.2-2.8,3.4-5.1,6.1-6.6,2.7-1.4,5.9-1.8,8.9-1.2,3,.7,5.7,2.3,7.6,4.8,1.9-2.4,4.6-4.1,7.6-4.8,3-.7,6.1-.3,8.9,1.2,2.7,1.4,4.9,3.7,6.1,6.6,1.2,2.8,1.4,6,.5,8.9"/>
      <g class="st33">
        <path class="st5" d="M348.7,92.7l-.8-.6-.2.3v.4h1ZM348.6,92.7h1v-.4l-.2-.3-.8.6ZM325.5,66.4l1-.3h0s-1,.3-1,.3ZM348.6,54.5l-.8.6.8,1,.8-1-.8-.6ZM370.8,66.1c-.2.7-.7,1.7-1.4,2.8-.7,1.1-1.7,2.4-2.8,3.8-2.2,2.7-4.9,5.7-7.6,8.5-2.7,2.8-5.4,5.4-7.4,7.4-1,1-1.9,1.8-2.5,2.4-.3.3-.6.5-.8.7-.2.2-.3.3-.4.4l1.5,1.3s0,0,.3-.3c.2-.2.4-.4.7-.7.6-.6,1.5-1.4,2.5-2.4,2-2,4.7-4.6,7.5-7.4,2.7-2.8,5.5-5.9,7.8-8.6,1.1-1.4,2.1-2.7,2.9-3.9.8-1.2,1.4-2.3,1.7-3.3l-1.9-.6ZM347.7,92.7c0-.3.1-.5.3-.7l1.4,1.4c.2-.2.3-.4.3-.7h-2ZM347.9,92c.2-.2.4-.3.7-.3v2c.3,0,.5-.1.7-.3l-1.4-1.4ZM348.6,91.7c.3,0,.5.1.7.3l-1.4,1.4c.2.2.5.3.7.3v-2ZM349.3,92c.2.2.3.4.3.7h-2c0,.3.1.5.3.7l1.4-1.4ZM349.4,92.1c0,0-.2-.3-.4-.4-.2-.2-.4-.4-.8-.7-.6-.6-1.5-1.4-2.5-2.4-2-2-4.7-4.6-7.4-7.4-2.7-2.8-5.5-5.8-7.6-8.5-1.1-1.4-2-2.6-2.8-3.8-.7-1.1-1.2-2.1-1.4-2.8l-1.9.6c.3,1,.9,2.1,1.7,3.3.8,1.2,1.8,2.5,2.9,3.9,2.2,2.8,5,5.8,7.8,8.6,2.7,2.8,5.4,5.5,7.5,7.4,1,1,1.9,1.8,2.5,2.4.3.3.6.5.7.7.2.2.3.3.3.3l1.5-1.3ZM326.5,66.1c-.8-2.7-.6-5.7.5-8.3l-1.8-.8c-1.3,3-1.5,6.4-.6,9.6l1.9-.6ZM327,57.8c1.1-2.6,3.1-4.8,5.6-6.1l-.9-1.8c-2.9,1.5-5.3,4-6.6,7l1.8.8ZM332.6,51.8c2.5-1.3,5.4-1.7,8.2-1.1l.4-2c-3.2-.7-6.6-.3-9.6,1.2l.9,1.8ZM340.8,50.7c2.8.6,5.3,2.2,7,4.4l1.6-1.2c-2-2.6-4.9-4.4-8.2-5.1l-.4,2ZM349.4,55.1c1.8-2.2,4.2-3.8,7-4.4l-.4-2c-3.2.7-6.1,2.5-8.2,5.1l1.6,1.2ZM356.4,50.7c2.8-.6,5.7-.2,8.2,1.1l.9-1.8c-2.9-1.5-6.3-2-9.6-1.2l.4,2ZM364.6,51.8c2.5,1.3,4.5,3.4,5.6,6.1l1.8-.8c-1.3-3-3.6-5.5-6.6-7l-.9,1.8ZM370.3,57.8c1.1,2.6,1.3,5.5.5,8.3l1.9.6c.9-3.2.7-6.6-.6-9.6l-1.8.8Z"/>
      </g>
      <path class="st3" d="M371.8,66.4c-2,6.9-22.5,25.6-23.1,26.3,0,0,0,0,0,0,0,0,0,0,0,0,0,0,0,0,0,0,0,0,0,0,0,0-.6-.8-21.1-19.4-23.1-26.3-.9-3-.7-6.1.5-8.9,1.2-2.8,3.4-5.1,6.1-6.6,2.7-1.4,5.9-1.8,8.9-1.2,3,.7,5.7,2.3,7.6,4.8,1.9-2.4,4.6-4.1,7.6-4.8,3-.7,6.1-.3,8.9,1.2,2.7,1.4,4.9,3.7,6.1,6.6,1.2,2.8,1.4,6,.5,8.9h0Z"/>
      <path class="st18" d="M357,69.4c-.7,2.4-7.7,8.7-7.9,9-.2-.3-7.2-6.6-7.9-9-.3-1-.2-2.1.2-3.1.4-1,1.2-1.8,2.1-2.2.9-.5,2-.6,3-.4,1,.2,1.9.8,2.6,1.6.6-.8,1.6-1.4,2.6-1.6,1-.2,2.1,0,3,.4s1.7,1.3,2.1,2.2c.4,1,.5,2,.2,3.1"/>
      <g class="st32">
        <path class="st5" d="M349.1,78.5l-.8.6.8.9.8-.9-.8-.6ZM341.2,69.4l1-.3h0s-1,.3-1,.3ZM349.1,65.4l-.8.6.8,1,.8-1-.8-.6ZM356,69.2c0,.2-.2.4-.4.8-.2.4-.5.8-.9,1.2-.7.9-1.6,1.9-2.6,2.9-.9,1-1.8,1.8-2.5,2.5-.3.3-.6.6-.9.8-.1.1-.2.2-.3.3,0,0-.1.1-.2.2l1.5,1.3s0,0,0,0c0,0,.1-.1.3-.2.2-.2.5-.5.9-.8.7-.7,1.6-1.6,2.6-2.6.9-1,1.9-2,2.7-3,.4-.5.7-1,1-1.4.3-.4.5-.9.6-1.3l-1.9-.6ZM349.8,77.8c0,0-.1-.1-.2-.2,0,0-.2-.2-.3-.3-.2-.2-.5-.5-.9-.8-.7-.7-1.6-1.6-2.5-2.5-.9-1-1.8-2-2.6-2.9-.4-.5-.7-.9-.9-1.2-.2-.4-.4-.6-.4-.8l-1.9.6c.1.4.4.9.6,1.3.3.4.6.9,1,1.4.8,1,1.8,2,2.7,3,.9,1,1.9,1.9,2.6,2.6.4.3.6.6.9.8.1.1.2.2.2.2,0,0,0,0,0,0l1.5-1.3ZM342.1,69.2c-.2-.8-.2-1.6.1-2.4l-1.8-.8c-.5,1.2-.6,2.5-.2,3.7l1.9-.6ZM342.3,66.8c.3-.8.9-1.4,1.6-1.7l-.9-1.8c-1.1.6-2,1.6-2.6,2.7l1.8.8ZM343.9,65c.7-.4,1.6-.5,2.4-.3l.4-2c-1.3-.3-2.6-.1-3.7.5l.9,1.8ZM346.3,64.7c.8.2,1.5.6,2,1.3l1.6-1.2c-.8-1-1.9-1.7-3.2-2l-.4,2ZM349.9,66c.5-.6,1.2-1.1,2-1.3l-.4-2c-1.3.3-2.4,1-3.2,2l1.6,1.2ZM351.9,64.7c.8-.2,1.6,0,2.4.3l.9-1.8c-1.1-.6-2.5-.8-3.7-.5l.4,2ZM354.3,65c.7.4,1.3,1,1.6,1.7l1.8-.8c-.5-1.2-1.4-2.1-2.5-2.7l-.9,1.8ZM355.9,66.8c.3.8.4,1.6.1,2.4l1.9.6c.4-1.2.3-2.6-.2-3.7l-1.8.8Z"/>
      </g>
      <path class="st3" d="M357,69.4c-.7,2.4-7.7,8.7-7.9,9-.2-.3-7.2-6.6-7.9-9-.3-1-.2-2.1.2-3.1.4-1,1.2-1.8,2.1-2.2.9-.5,2-.6,3-.4,1,.2,1.9.8,2.6,1.6.6-.8,1.6-1.4,2.6-1.6,1-.2,2.1,0,3,.4s1.7,1.3,2.1,2.2c.4,1,.5,2,.2,3.1h0Z"/>
      <line class="st1" x1="24" y1="329.4" x2="24" y2="849.4"/>
      <line class="st1" x1="677" y1="329.4" x2="677" y2="849.4"/>
      <path class="st18" d="M125.6,1019.8c.8-.2,1.6-.5,2.4-.8-6.8,8.8-15.9,15.5-26.3,19.5-10.4,3.9-21.7,4.9-32.6,2.8-10.9-2.1-21.1-7.1-29.3-14.6-8.2-7.5-14.2-17.1-17.4-27.8-3.1-10.7-3.3-22-.4-32.8,2.9-10.8,8.7-20.5,16.8-28.2,8.1-7.7,18.1-12.9,29-15.3,10.9-2.3,22.2-1.6,32.6,2.1-.8.2-1.7.4-2.5.7-6.2,1.8-11.9,4.8-16.9,8.9-5,4-9.2,9-12.3,14.7-3.1,5.7-5,11.9-5.7,18.3s-.1,12.9,1.7,19.1c1.8,6.2,4.8,12,8.9,17,4,5,9,9.2,14.7,12.3,5.6,3.1,11.8,5,18.2,5.7,6.4.7,12.9,0,19-1.7"/>
      <g class="st35">
        <path class="st5" d="M128,1019l2.4,1.8,6.2-8-9.5,3.3,1,2.8ZM100.4,924.9l.7,2.9,9.8-2.4-9.5-3.4-1,2.8ZM98,925.6l.8,2.9h0s-.9-2.9-.9-2.9ZM126.4,1022.7c.9-.3,1.7-.5,2.6-.8l-2-5.7c-.8.3-1.5.5-2.3.8l1.7,5.8ZM125.6,1017.2c-6.5,8.4-15.1,14.8-25,18.5l2.1,5.6c10.9-4.1,20.5-11.2,27.6-20.4l-4.7-3.7ZM100.6,1035.7c-9.9,3.8-20.6,4.7-31,2.7l-1.1,5.9c11.5,2.2,23.3,1.1,34.2-3l-2.1-5.6ZM69.7,1038.4c-10.4-2-20-6.8-27.8-13.9l-4,4.4c8.6,7.8,19.3,13.2,30.7,15.3l1.1-5.9ZM41.8,1024.5c-7.8-7.1-13.5-16.3-16.5-26.4l-5.8,1.7c3.3,11.2,9.6,21.3,18.2,29.2l4-4.4ZM25.3,998.1c-3-10.2-3.1-21-.3-31.2l-5.8-1.6c-3,11.3-2.9,23.2.4,34.4l5.8-1.7ZM25,967c2.8-10.2,8.3-19.5,15.9-26.8l-4.1-4.4c-8.5,8-14.6,18.3-17.6,29.6l5.8,1.6ZM40.9,940.2c7.7-7.3,17.2-12.3,27.5-14.5l-1.2-5.9c-11.4,2.4-21.9,8-30.4,16l4.1,4.4ZM68.4,925.7c10.3-2.2,21.1-1.5,31,2l2-5.7c-11-3.9-22.9-4.7-34.3-2.2l1.2,5.9ZM99.7,922c-.9.2-1.7.4-2.6.7l1.7,5.8c.8-.2,1.6-.4,2.3-.6l-1.4-5.8ZM97.1,922.7c-6.6,1.9-12.7,5.1-18,9.4l3.8,4.7c4.7-3.8,10.1-6.6,15.9-8.3l-1.7-5.8ZM79.1,932.1c-5.3,4.3-9.7,9.6-13,15.6l5.3,2.9c2.9-5.3,6.8-10,11.5-13.8l-3.8-4.7ZM66.1,947.7c-3.3,6-5.3,12.6-6.1,19.4l6,.6c.6-6,2.5-11.9,5.4-17.2l-5.3-2.9ZM60.1,967.1c-.7,6.8-.1,13.7,1.8,20.3l5.8-1.7c-1.7-5.8-2.2-11.9-1.6-17.9l-6-.6ZM61.9,987.4c1.9,6.6,5.1,12.7,9.4,18l4.7-3.8c-3.8-4.7-6.6-10.1-8.3-15.9l-5.8,1.7ZM71.3,1005.4c4.3,5.3,9.6,9.8,15.6,13l2.9-5.3c-5.3-2.9-10-6.8-13.8-11.5l-4.7,3.8ZM86.9,1018.4c6,3.3,12.6,5.4,19.4,6.1l.6-6c-6-.6-11.8-2.5-17.1-5.4l-2.9,5.3ZM106.2,1024.5c6.8.7,13.7.1,20.2-1.8l-1.7-5.8c-5.8,1.7-11.9,2.2-17.9,1.6l-.6,6Z"/>
      </g>
      <path class="st18" d="M572.4,1019.8c-.8-.2-1.6-.5-2.4-.8,6.8,8.8,15.9,15.5,26.3,19.5,10.4,3.9,21.7,4.9,32.6,2.8,10.9-2.1,21.1-7.1,29.3-14.6,8.2-7.5,14.2-17.1,17.4-27.8,3.1-10.7,3.3-22,.4-32.8-2.9-10.8-8.7-20.5-16.8-28.2-8.1-7.7-18.1-12.9-29-15.3-10.9-2.3-22.2-1.6-32.6,2.1.8.2,1.7.4,2.5.7,6.2,1.8,11.9,4.8,16.9,8.9,5,4,9.2,9,12.3,14.7,3.1,5.7,5,11.9,5.7,18.3.7,6.4.1,12.9-1.7,19.1-1.8,6.2-4.8,12-8.9,17-4,5-9,9.2-14.7,12.3-5.6,3.1-11.8,5-18.2,5.7-6.4.7-12.9,0-19-1.7"/>
      <g class="st36">
        <path class="st5" d="M570,1019l-2.4,1.8-6.2-8,9.5,3.3-1,2.8ZM597.6,924.9l-.7,2.9-9.8-2.4,9.5-3.4,1,2.8ZM600,925.6l-.8,2.9h0s.9-2.9.9-2.9ZM571.6,1022.7c-.9-.3-1.7-.5-2.6-.8l2-5.7c.8.3,1.5.5,2.3.8l-1.7,5.8ZM572.4,1017.2c6.5,8.4,15.1,14.8,25,18.5l-2.1,5.6c-10.9-4.1-20.5-11.2-27.6-20.4l4.7-3.7ZM597.4,1035.7c9.9,3.8,20.6,4.7,31,2.7l1.1,5.9c-11.5,2.2-23.3,1.1-34.2-3l2.1-5.6ZM628.3,1038.4c10.4-2,20-6.8,27.8-13.9l4,4.4c-8.6,7.8-19.3,13.2-30.7,15.3l-1.1-5.9ZM656.2,1024.5c7.8-7.1,13.5-16.3,16.5-26.4l5.8,1.7c-3.3,11.2-9.6,21.3-18.2,29.2l-4-4.4ZM672.7,998.1c3-10.2,3.1-21,.3-31.2l5.8-1.6c3,11.3,2.9,23.2-.4,34.4l-5.8-1.7ZM673,967c-2.8-10.2-8.3-19.5-15.9-26.8l4.1-4.4c8.5,8,14.6,18.3,17.6,29.6l-5.8,1.6ZM657.1,940.2c-7.7-7.3-17.2-12.3-27.5-14.5l1.2-5.9c11.4,2.4,21.9,8,30.4,16l-4.1,4.4ZM629.6,925.7c-10.3-2.2-21.1-1.5-31,2l-2-5.7c11-3.9,22.9-4.7,34.3-2.2l-1.2,5.9ZM598.3,922c.9.2,1.7.4,2.6.7l-1.7,5.8c-.8-.2-1.6-.4-2.3-.6l1.4-5.8ZM600.9,922.7c6.6,1.9,12.7,5.1,18,9.4l-3.8,4.7c-4.7-3.8-10.1-6.6-15.9-8.3l1.7-5.8ZM618.9,932.1c5.3,4.3,9.7,9.6,13,15.6l-5.3,2.9c-2.9-5.3-6.8-10-11.5-13.8l3.8-4.7ZM631.9,947.7c3.3,6,5.3,12.6,6.1,19.4l-6,.6c-.6-6-2.5-11.9-5.4-17.2l5.3-2.9ZM637.9,967.1c.7,6.8.1,13.7-1.8,20.3l-5.8-1.7c1.7-5.8,2.2-11.9,1.6-17.9l6-.6ZM636.1,987.4c-1.9,6.6-5.1,12.7-9.4,18l-4.7-3.8c3.8-4.7,6.6-10.1,8.3-15.9l5.8,1.7ZM626.7,1005.4c-4.3,5.3-9.6,9.8-15.6,13l-2.9-5.3c5.3-2.9,10-6.8,13.8-11.5l4.7,3.8ZM611.1,1018.4c-6,3.3-12.6,5.4-19.4,6.1l-.6-6c6-.6,11.8-2.5,17.1-5.4l2.9,5.3ZM591.8,1024.5c-6.8.7-13.7.1-20.2-1.8l1.7-5.8c5.8,1.7,11.9,2.2,17.9,1.6l.6,6Z"/>
      </g>
    </g>
  </g>
  <path d="M447.8,543.9c-62.3,19.5-78.2,35.3-97.7,97.9-19.5-62.6-35.6-78.5-97.9-97.9,62.3-19.5,78.5-35.3,97.9-97.7,19.5,62.3,35.3,78.2,97.7,97.7Z"/>
  <g>
    <path d="M218.4,973c-2.3,0-4.4-.5-6.1-1.5-1.8-1-3.2-2.5-4.2-4.3-1-1.8-1.5-3.9-1.5-6.3s.5-4.5,1.5-6.3c1-1.8,2.4-3.2,4.2-4.3s3.8-1.5,6.2-1.5,4.2.4,5.8,1.2c1.6.8,2.9,1.8,3.8,3.1.9,1.3,1.5,2.7,1.7,4.2h-5.1c-.2-.7-.5-1.4-1-2-.5-.6-1.1-1.1-2-1.5-.8-.4-1.9-.6-3.1-.6s-2.7.3-3.8.9c-1.1.6-1.9,1.5-2.5,2.7s-.9,2.5-.9,4.1.3,2.9.9,4.1c.6,1.2,1.4,2.1,2.5,2.7,1.1.6,2.3,1,3.8,1s2.3-.2,3.3-.6c1-.4,1.8-1,2.4-1.7.7-.8,1.1-1.8,1.4-2.9l1.4.7h-10.9v-4.1h14.2v1.3c0,2.5-.5,4.6-1.5,6.4-1,1.8-2.4,3.1-4.2,4-1.8.9-3.8,1.4-6,1.4Z"/>
    <path d="M233.1,972.6v-23.5h20.1v4.4h-15.5v4.9h15.5v4.4h-15.5v5.3h15.5v4.4h-20.1Z"/>
    <path d="M276.1,953.5h-7.7v19.1h-4.5v-19.1h-7.7v-4.4h20v4.4Z"/>
    <path d="M296.7,963.9l-7.9-14.9h5.3l5.1,10.1h.6l5.1-10.1h5.3l-7.9,14.9h-5.6ZM297.2,972.6v-10.2h4.6v10.2h-4.6Z"/>
    <path d="M324.3,973c-2.3,0-4.3-.5-6.1-1.6-1.8-1-3.2-2.5-4.2-4.3-1-1.8-1.5-3.9-1.5-6.3s.5-4.5,1.5-6.3,2.4-3.3,4.2-4.3c1.8-1,3.8-1.6,6.1-1.6s4.3.5,6.1,1.6c1.8,1,3.2,2.5,4.2,4.3s1.5,3.9,1.5,6.3-.5,4.4-1.5,6.3c-1,1.8-2.4,3.3-4.2,4.3-1.8,1-3.8,1.6-6.1,1.6ZM324.3,968.5c1.4,0,2.7-.3,3.7-1,1.1-.6,1.9-1.5,2.5-2.7.6-1.2.9-2.5.9-4.1s-.3-2.9-.9-4.1c-.6-1.2-1.4-2.1-2.5-2.7-1.1-.6-2.3-1-3.8-1s-2.7.3-3.7,1c-1.1.6-1.9,1.5-2.5,2.7-.6,1.2-.9,2.5-.9,4.1s.3,2.9.9,4.1,1.4,2.1,2.5,2.7c1.1.6,2.3,1,3.8,1Z"/>
    <path d="M349.4,972.8c-2.1,0-4-.4-5.5-1.2-1.6-.8-2.7-1.9-3.6-3.4-.8-1.5-1.3-3.2-1.3-5.1v-14.1h4.6v13.8c0,1.9.5,3.2,1.6,4.2s2.4,1.4,4.1,1.4,3.3-.5,4.3-1.5c.9-1,1.4-2.4,1.4-4v-13.8h4.6v14.1c0,2-.4,3.8-1.3,5.2-.8,1.4-2,2.5-3.5,3.3s-3.3,1.2-5.4,1.2Z"/>
    <path d="M363.2,972.6v-23.5h12.9c1.5,0,2.9.3,4,.9s2.1,1.4,2.8,2.4c.7,1,1,2.3,1,3.7s-.3,2.6-1,3.7c-.7,1.1-1.6,1.9-2.8,2.5-1.2.6-2.6.9-4.1.9h-8.3v9.5h-4.6ZM367.8,958.6h8.1c1.1,0,1.9-.2,2.5-.7s.9-1.1.9-1.9-.3-1.4-.9-1.9c-.6-.5-1.5-.7-2.5-.7h-8.1v5.1ZM379.9,972.6l-7.3-12.4h5.2c0,0,7.5,12.4,7.5,12.4h-5.4Z"/>
    <path d="M398.4,972.6v-23.5h4.6v19.1h15.6v4.4h-20.1Z"/>
    <path d="M432.5,972.8c-2.1,0-4-.4-5.5-1.2-1.6-.8-2.7-1.9-3.6-3.4-.8-1.5-1.3-3.2-1.3-5.1v-14.1h4.6v13.8c0,1.9.5,3.2,1.6,4.2s2.4,1.4,4.1,1.4,3.3-.5,4.3-1.5c.9-1,1.4-2.4,1.4-4v-13.8h4.6v14.1c0,2-.4,3.8-1.3,5.2-.8,1.4-2,2.5-3.5,3.3s-3.3,1.2-5.4,1.2Z"/>
    <path d="M457.6,973c-2.5,0-4.6-.5-6.4-1.6-1.8-1.1-3.2-2.6-4.2-4.4-1-1.8-1.5-3.9-1.5-6.1s.5-4.4,1.5-6.2c1-1.8,2.4-3.3,4.2-4.3s3.9-1.6,6.4-1.6,4.1.4,5.8,1.3,3,2,4,3.5c1,1.5,1.6,3.1,1.7,4.9h-5.1c-.2-1.1-.5-2-1.1-2.8-.6-.8-1.3-1.4-2.3-1.8-.9-.4-2-.6-3.2-.6s-2.7.3-3.8,1c-1.1.6-1.9,1.5-2.5,2.7-.6,1.2-.9,2.5-.9,4.1s.3,2.8.8,4,1.4,2.1,2.5,2.8,2.4,1,3.9,1,2.2-.2,3.1-.6c.9-.4,1.7-1,2.3-1.8.6-.8,1-1.7,1.1-2.9h5.1c-.1,1.8-.7,3.5-1.7,4.9s-2.4,2.6-4.1,3.5-3.6,1.3-5.8,1.3Z"/>
    <path d="M472.1,972.6v-23.5h4.6v23.5h-4.6ZM488.1,972.6l-6.2-10.5,3.1,1.8h-10.2v-4.4h9.9l-2.9,1.9,6.1-12.3h5.2l-7.5,14.2v-3.6l7.8,13h-5.3Z"/>
    <path d="M255.3,1016.2c-2.3,0-4.3-.5-6.1-1.6-1.8-1-3.2-2.5-4.2-4.3-1-1.8-1.5-3.9-1.5-6.3s.5-4.5,1.5-6.3,2.4-3.3,4.2-4.3c1.8-1,3.8-1.6,6.1-1.6s4.3.5,6.1,1.6c1.8,1,3.2,2.5,4.2,4.3s1.5,3.9,1.5,6.3-.5,4.4-1.5,6.3c-1,1.8-2.4,3.3-4.2,4.3-1.8,1-3.8,1.6-6.1,1.6ZM255.3,1011.7c1.4,0,2.7-.3,3.7-1,1.1-.6,1.9-1.5,2.5-2.7.6-1.2.9-2.5.9-4.1s-.3-2.9-.9-4.1c-.6-1.2-1.4-2.1-2.5-2.7-1.1-.6-2.3-1-3.8-1s-2.7.3-3.7,1c-1.1.6-1.9,1.5-2.5,2.7-.6,1.2-.9,2.5-.9,4.1s.3,2.9.9,4.1,1.4,2.1,2.5,2.7c1.1.6,2.3,1,3.8,1Z"/>
    <path d="M270.1,1015.8v-23.5h19.5v4.4h-14.9v5.2h14.9v4.4h-14.9v9.5h-4.6Z"/>
    <path d="M323,996.7h-7.7v19.1h-4.5v-19.1h-7.7v-4.4h20v4.4Z"/>
    <path d="M325.9,1015.8v-23.5h4.6v9.9h12.2v-9.9h4.6v23.5h-4.6v-9.2h-12.2v9.2h-4.6Z"/>
    <path d="M350.8,1015.8v-23.5h20.1v4.4h-15.5v4.9h15.5v4.4h-15.5v5.3h15.5v4.4h-20.1Z"/>
    <path d="M385.1,1015.8v-23.5h9.5c2.4,0,4.5.5,6.3,1.5,1.8,1,3.3,2.4,4.3,4.1,1.1,1.8,1.6,3.8,1.6,6.1s-.5,4.3-1.6,6.1c-1.1,1.8-2.5,3.2-4.3,4.2-1.8,1-4,1.5-6.3,1.5h-9.5ZM389.6,1011.4h4.9c1.5,0,2.8-.3,3.9-.9s2-1.5,2.6-2.6c.6-1.1,1-2.4,1-3.9s-.3-2.7-1-3.8-1.5-1.9-2.6-2.5-2.4-.9-3.9-.9h-4.9v14.7Z"/>
    <path d="M409,1015.8l8.5-23.5h7l8.4,23.5h-5l-2-6h-9.9l-2,6h-5ZM417.4,1005.5h7l-2.9-8.8h-1.2l-2.9,8.8Z"/>
    <path d="M443,1007.1l-7.9-14.9h5.3l5.1,10.1h.6l5.1-10.1h5.3l-7.9,14.9h-5.6ZM443.5,1015.8v-10.2h4.6v10.2h-4.6Z"/>
  </g>
</svg>